<svg version="1.1" id="Layer_1" xmlns="http://www.w3.org/2000/svg" xmlns:xlink="http://www.w3.org/1999/xlink" x="0px" y="0px"
     width="100%" viewBox="0 0 1024 1024" enable-background="new 0 0 1024 1024" xml:space="preserve">
<path fill="#FEFEFE" opacity="1.000000" stroke="none" 
    d="
M676.000000,1025.000000 
    C450.666656,1025.000000 225.833328,1025.000000 1.000000,1025.000000 
    C1.000000,683.666687 1.000000,342.333344 1.000000,1.000000 
    C342.333344,1.000000 683.666687,1.000000 1025.000000,1.000000 
    C1025.000000,342.333344 1025.000000,683.666687 1025.000000,1025.000000 
    C908.833313,1025.000000 792.666687,1025.000000 676.000000,1025.000000 
M641.002502,251.241974 
    C639.334351,250.204147 637.666138,249.166336 635.508850,247.656113 
    C630.973999,243.982315 626.439209,240.308502 621.891541,235.906662 
    C622.220398,233.517654 623.699219,229.943130 622.674683,228.949448 
    C618.709229,225.103241 613.946106,222.079361 609.246887,218.575333 
    C606.612366,222.054642 604.328918,225.070267 601.461609,227.772278 
    C600.311279,227.178253 599.161011,226.584213 597.597046,225.461502 
    C579.668762,215.251740 561.570557,205.326843 543.856018,194.758743 
    C522.613831,182.086044 502.043304,182.512817 480.709534,194.934723 
    C406.544861,238.118240 332.268250,281.113129 257.768372,323.714844 
    C236.886795,335.655731 227.503189,353.227844 227.380386,376.538910 
    C227.271576,397.192230 227.376251,417.846649 227.029938,439.445251 
    C226.968033,440.441071 226.852066,441.436920 226.851929,442.432739 
    C226.843277,505.874847 226.840790,569.316956 226.864075,632.759033 
    C226.864624,634.238037 227.164658,635.716980 227.280533,638.094055 
    C227.318573,641.960876 227.356628,645.827759 227.181488,650.508301 
    C226.700211,652.231018 226.494659,654.097900 225.684158,655.648560 
    C223.557419,659.717407 223.284439,663.320129 227.496201,667.086609 
    C229.577011,674.744446 230.913452,682.707764 233.903549,689.992371 
    C239.093719,702.636536 249.782410,709.767883 261.445465,716.293457 
    C335.959106,757.983948 410.210541,800.142761 484.656982,841.953857 
    C503.036346,852.276245 521.983948,852.136902 540.506531,842.186523 
    C556.628845,833.525574 572.433350,824.272827 588.377075,815.279541 
    C648.534241,781.346558 708.569824,747.195190 768.922791,713.614258 
    C786.603149,703.776733 796.492615,689.044678 797.568298,669.687317 
    C798.869324,646.274780 797.817017,622.731567 798.135803,598.618347 
    C816.031677,574.006165 819.943848,546.459290 815.227112,517.107971 
    C812.830200,502.192902 806.510010,488.960815 797.994751,475.852936 
    C798.013428,441.307587 798.085449,406.762177 798.019958,372.216980 
    C797.998901,361.120667 794.347473,351.048340 788.379456,341.794617 
    C787.633301,340.637695 786.347473,339.828796 785.239258,338.144012 
    C782.085388,334.657532 778.931519,331.171051 775.746399,327.650085 
    C777.191040,323.286011 778.811890,318.776062 780.115295,314.176147 
    C780.434814,313.048615 780.167480,310.976105 779.402283,310.445862 
    C774.282532,306.898193 768.954956,303.650299 763.279907,300.041260 
    C762.167480,303.720581 761.221191,306.850403 759.879883,310.564270 
    C759.213501,312.308075 758.547180,314.051849 757.343872,316.158936 
    C756.584167,316.382690 755.824524,316.606445 754.670837,316.293701 
    C752.443909,315.214752 750.216919,314.135803 747.363281,312.786377 
    C746.513916,312.033417 745.763489,311.109375 744.800842,310.552246 
    C711.789795,291.447754 678.764954,272.367126 645.708069,253.342026 
    C644.350769,252.560837 642.666382,252.348053 641.104919,251.922348 
    C641.104919,251.922348 641.157837,251.897156 641.002502,251.241974 
z"/>
<path fill="#7EE6F0" opacity="1.000000" stroke="none" 
    d="
M227.387085,666.315735 
    C223.284439,663.320129 223.557419,659.717407 225.684158,655.648560 
    C226.494659,654.097900 226.700211,652.231018 227.474838,649.857056 
    C229.719955,645.363464 231.671707,641.521057 233.868668,637.195923 
    C231.167618,637.195923 229.246307,637.195923 227.325012,637.195923 
    C227.164658,635.716980 226.864624,634.238037 226.864075,632.759033 
    C226.840790,569.316956 226.843277,505.874847 226.851929,442.432739 
    C226.852066,441.436920 226.968033,440.441071 227.631226,439.087830 
    C232.134598,438.767365 236.036713,438.804321 240.409042,438.845276 
    C250.540543,438.859222 260.205444,439.022339 269.861023,438.793213 
    C273.093323,438.716492 275.029297,439.851593 276.898651,442.333160 
    C295.409515,466.906799 314.006134,491.415955 332.603882,515.924072 
    C339.069000,524.443787 345.604675,532.909973 352.108124,541.400635 
    C352.460846,541.263550 352.813599,541.126465 353.166351,540.989380 
    C353.166351,507.121826 353.166351,473.254242 353.166351,438.988647 
    C371.139008,438.988647 388.583618,438.988647 406.021667,439.458313 
    C406.001984,448.532501 405.879883,457.139404 406.073425,465.739258 
    C406.109406,467.337646 407.415314,468.907471 408.312775,470.636810 
    C408.587952,471.148926 408.458557,471.394806 407.676819,471.637451 
    C406.858429,474.011414 406.465515,476.268677 406.151184,478.956329 
    C406.234955,517.927673 406.238586,556.468689 406.258331,595.009705 
    C406.258667,595.662903 406.453857,596.316040 406.434601,597.402222 
    C406.415192,600.201294 406.519257,602.567261 406.477539,605.370056 
    C406.386475,608.825256 406.441223,611.843628 406.359161,615.305420 
    C406.152466,618.832092 406.082581,621.915466 405.664795,625.034424 
    C402.006042,628.180359 398.652466,631.247803 395.431732,634.448914 
    C394.965271,634.912598 395.135498,636.016968 394.602661,636.882996 
    C393.096497,636.977722 391.998840,637.014221 390.439514,637.019897 
    C383.599976,636.986328 377.222076,636.983643 370.410034,636.984863 
    C363.495575,638.215332 359.737488,634.766052 356.318390,629.774475 
    C351.877472,623.291138 346.823914,617.227417 341.891602,610.692383 
    C340.484344,608.931335 339.219604,607.460938 337.964417,605.635986 
    C334.650970,601.026184 331.328003,596.770935 327.970367,592.272339 
    C327.620453,591.683472 327.305206,591.337891 326.854736,590.715942 
    C326.131989,589.635681 325.544464,588.831848 324.871887,587.770935 
    C324.307739,586.985474 323.828674,586.457092 323.235138,585.614746 
    C322.179718,584.103943 321.238708,582.906982 320.081146,581.446533 
    C317.716278,578.509338 315.567993,575.835571 313.310181,572.808105 
    C302.315765,557.661621 291.430847,542.868774 280.545929,528.075928 
    C280.070587,528.330505 279.595215,528.585144 279.119843,528.839783 
    C279.119843,549.211426 279.119843,569.583130 279.061707,590.382263 
    C279.053009,592.524048 279.102448,594.238403 279.080444,596.348511 
    C279.092743,597.806885 279.176453,598.869507 279.219025,600.340454 
    C279.240051,602.109558 279.302185,603.470337 279.257812,605.205078 
    C279.120056,606.347656 279.088776,607.116394 279.034302,608.274292 
    C279.680573,611.458435 274.682007,614.430237 279.242493,617.501465 
    C278.079559,622.874573 281.560730,624.936035 285.147583,627.324524 
    C299.480988,639.659790 313.647644,651.706543 328.291473,664.159119 
    C325.856171,667.289978 323.485168,670.338135 320.870514,673.699585 
    C314.652985,668.444336 308.994049,663.604370 303.272766,658.839294 
    C295.625366,652.469971 287.929565,646.158752 280.111053,639.463867 
    C278.755066,638.415771 277.563812,637.179810 276.326477,637.131897 
    C271.029510,636.926575 265.699829,636.826904 260.425110,637.239258 
    C258.867340,637.361023 256.790710,638.967712 256.074829,640.439941 
    C250.760086,651.369080 245.728516,662.435913 240.263275,673.390137 
    C235.741364,670.985779 231.564224,668.650757 227.387085,666.315735 
z"/>
<!-- truncated: full file is long, insertion continues as in original `file.svg` -->
</svg>
