<svg version="1.1" id="Layer_1" xmlns="http://www.w3.org/2000/svg" xmlns:xlink="http://www.w3.org/1999/xlink" x="0px" y="0px"
	width="100%" viewBox="0 0 1024 1024" preserveAspectRatio="xMidYMid meet" enable-background="new 0 0 1024 1024" xml:space="preserve">
<path fill="#FEFEFE" opacity="1.000000" stroke="none" 
	d="
M676.000000,1025.000000 
	C450.666656,1025.000000 225.833328,1025.000000 1.000000,1025.000000 
	C1.000000,683.666687 1.000000,342.333344 1.000000,1.000000 
	C342.333344,1.000000 683.666687,1.000000 1025.000000,1.000000 
	C1025.000000,342.333344 1025.000000,683.666687 1025.000000,1025.000000 
	C908.833313,1025.000000 792.666687,1025.000000 676.000000,1025.000000 
M641.002502,251.241974 
	C639.334351,250.204147 637.666138,249.166336 635.508850,247.656113 
	C630.973999,243.982315 626.439209,240.308502 621.891541,235.906662 
	C622.220398,233.517654 623.699219,229.943130 622.674683,228.949448 
	C618.709229,225.103241 613.946106,222.079361 609.246887,218.575333 
	C606.612366,222.054642 604.328918,225.070267 601.461609,227.772278 
	C600.311279,227.178253 599.161011,226.584213 597.597046,225.461502 
	C579.668762,215.251740 561.570557,205.326843 543.856018,194.758743 
	C522.613831,182.086044 502.043304,182.512817 480.709534,194.934723 
	C406.544861,238.118240 332.268250,281.113129 257.768372,323.714844 
	C236.886795,335.655731 227.503189,353.227844 227.380386,376.538910 
	C227.271576,397.192230 227.376251,417.846649 227.029938,439.445251 
	C226.968033,440.441071 226.852066,441.436920 226.851929,442.432739 
	C226.843277,505.874847 226.840790,569.316956 226.864075,632.759033 
	C226.864624,634.238037 227.164658,635.716980 227.280533,638.094055 
	C227.318573,641.960876 227.356628,645.827759 227.181488,650.508301 
	C226.700211,652.231018 226.494659,654.097900 225.684158,655.648560 
	C223.557419,659.717407 223.284439,663.320129 227.496201,667.086609 
	C229.577011,674.744446 230.913452,682.707764 233.903549,689.992371 
	C239.093719,702.636536 249.782410,709.767883 261.445465,716.293457 
	C335.959106,757.983948 410.210541,800.142761 484.656982,841.953857 
	C503.036346,852.276245 521.983948,852.136902 540.506531,842.186523 
	C556.628845,833.525574 572.433350,824.272827 588.377075,815.279541 
	C648.534241,781.346558 708.569824,747.195190 768.922791,713.614258 
	C786.603149,703.776733 796.492615,689.044678 797.568298,669.687317 
	C798.869324,646.274780 797.817017,622.731567 798.135803,598.618347 
	C816.031677,574.006165 819.943848,546.459290 815.227112,517.107971 
	C812.830200,502.192902 806.510010,488.960815 797.994751,475.852936 
	C798.013428,441.307587 798.085449,406.762177 798.019958,372.216980 
	C797.998901,361.120667 794.347473,351.048340 788.379456,341.794617 
	C787.633301,340.637695 786.347473,339.828796 785.239258,338.144012 
	C782.085388,334.657532 778.931519,331.171051 775.746399,327.650085 
	C777.191040,323.286011 778.811890,318.776062 780.115295,314.176147 
	C780.434814,313.048615 780.167480,310.976105 779.402283,310.445862 
	C774.282532,306.898193 768.954956,303.650299 763.279907,300.041260 
	C762.167480,303.720581 761.221191,306.850403 759.879883,310.564270 
	C759.213501,312.308075 758.547180,314.051849 757.343872,316.158936 
	C756.584167,316.382690 755.824524,316.606445 754.670837,316.293701 
	C752.443909,315.214752 750.216919,314.135803 747.363281,312.786377 
	C746.513916,312.033417 745.763489,311.109375 744.800842,310.552246 
	C711.789795,291.447754 678.764954,272.367126 645.708069,253.342026 
	C644.350769,252.560837 642.666382,252.348053 641.104919,251.922348 
	C641.104919,251.922348 641.157837,251.897156 641.002502,251.241974 
z"/>
<path fill="#7EE6F0" opacity="1.000000" stroke="none" 
	d="
M227.387085,666.315735 
	C223.284439,663.320129 223.557419,659.717407 225.684158,655.648560 
	C226.494659,654.097900 226.700211,652.231018 227.474838,649.857056 
	C229.719955,645.363464 231.671707,641.521057 233.868668,637.195923 
	C231.167618,637.195923 229.246307,637.195923 227.325012,637.195923 
	C227.164658,635.716980 226.864624,634.238037 226.864075,632.759033 
	C226.840790,569.316956 226.843277,505.874847 226.851929,442.432739 
	C226.852066,441.436920 226.968033,440.441071 227.631226,439.087830 
	C232.134598,438.767365 236.036713,438.804321 240.409042,438.845276 
	C250.540543,438.859222 260.205444,439.022339 269.861023,438.793213 
	C273.093323,438.716492 275.029297,439.851593 276.898651,442.333160 
	C295.409515,466.906799 314.006134,491.415955 332.603882,515.924072 
	C339.069000,524.443787 345.604675,532.909973 352.108124,541.400635 
	C352.460846,541.263550 352.813599,541.126465 353.166351,540.989380 
	C353.166351,507.121826 353.166351,473.254242 353.166351,438.988647 
	C371.139008,438.988647 388.583618,438.988647 406.021667,439.458313 
	C406.001984,448.532501 405.879883,457.139404 406.073425,465.739258 
	C406.109406,467.337646 407.415314,468.907471 408.312775,470.636810 
	C408.587952,471.148926 408.458557,471.394806 407.676819,471.637451 
	C406.858429,474.011414 406.465515,476.268677 406.151184,478.956329 
	C406.234955,517.927673 406.238586,556.468689 406.258331,595.009705 
	C406.258667,595.662903 406.453857,596.316040 406.434601,597.402222 
	C406.415192,600.201294 406.519257,602.567261 406.477539,605.370056 
	C406.386475,608.825256 406.441223,611.843628 406.359161,615.305420 
	C406.152466,618.832092 406.082581,621.915466 405.664795,625.034424 
	C402.006042,628.180359 398.652466,631.247803 395.431732,634.448914 
	C394.965271,634.912598 395.135498,636.016968 394.602661,636.882996 
	C393.096497,636.977722 391.998840,637.014221 390.439514,637.019897 
	C383.599976,636.986328 377.222076,636.983643 370.410034,636.984863 
	C363.495575,638.215332 359.737488,634.766052 356.318390,629.774475 
	C351.877472,623.291138 346.823914,617.227417 341.891602,610.692383 
	C340.484344,608.931335 339.219604,607.460938 337.964417,605.635986 
	C334.650970,601.026184 331.328003,596.770935 327.970367,592.272339 
	C327.620453,591.683472 327.305206,591.337891 326.854736,590.715942 
	C326.131989,589.635681 325.544464,588.831848 324.871887,587.770935 
	C324.307739,586.985474 323.828674,586.457092 323.235138,585.614746 
	C322.179718,584.103943 321.238708,582.906982 320.081146,581.446533 
	C317.716278,578.509338 315.567993,575.835571 313.310181,572.808105 
	C302.315765,557.661621 291.430847,542.868774 280.545929,528.075928 
	C280.070587,528.330505 279.595215,528.585144 279.119843,528.839783 
	C279.119843,549.211426 279.119843,569.583130 279.061707,590.382263 
	C279.053009,592.524048 279.102448,594.238403 279.080444,596.348511 
	C279.092743,597.806885 279.176453,598.869507 279.219025,600.340454 
	C279.240051,602.109558 279.302185,603.470337 279.257812,605.205078 
	C279.120056,606.347656 279.088776,607.116394 279.034302,608.274292 
	C279.680573,611.458435 274.682007,614.430237 279.242493,617.501465 
	C278.079559,622.874573 281.560730,624.936035 285.147583,627.324524 
	C299.480988,639.659790 313.647644,651.706543 328.291473,664.159119 
	C325.856171,667.289978 323.485168,670.338135 320.870514,673.699585 
	C314.652985,668.444336 308.994049,663.604370 303.272766,658.839294 
	C295.625366,652.469971 287.929565,646.158752 280.111053,639.463867 
	C278.755066,638.415771 277.563812,637.179810 276.326477,637.131897 
	C271.029510,636.926575 265.699829,636.826904 260.425110,637.239258 
	C258.867340,637.361023 256.790710,638.967712 256.074829,640.439941 
	C250.760086,651.369080 245.728516,662.435913 240.263275,673.390137 
	C235.741364,670.985779 231.564224,668.650757 227.387085,666.315735 
z"/>
<path fill="#7EE6EF" opacity="1.000000" stroke="none" 
	d="
M797.843018,476.742676 
	C806.510010,488.960815 812.830200,502.192902 815.227112,517.107971 
	C819.943848,546.459290 816.031677,574.006165 797.728455,599.134644 
	C793.195496,604.063904 789.069946,608.476929 784.611572,612.973206 
	C763.014893,630.671021 738.260498,637.396606 711.037109,637.081055 
	C685.708496,636.787476 660.373962,637.013794 635.041992,637.011353 
	C633.127319,637.011169 631.212585,637.011353 629.329407,637.011353 
	C629.329407,570.559937 629.329407,504.981140 629.329407,439.193695 
	C631.002380,439.079620 632.301758,438.914215 633.601196,438.913727 
	C662.099609,438.902496 690.599365,438.744720 719.096069,438.968048 
	C739.925171,439.131256 759.054626,445.206665 776.357117,456.880188 
	C779.375916,458.916931 782.382141,460.972351 785.577759,463.275940 
	C789.788574,467.936096 793.815796,472.339386 797.843018,476.742676 
M682.978577,509.500000 
	C682.978577,536.537231 682.978577,563.574463 682.978577,590.870300 
	C694.684570,590.870300 705.511841,591.334534 716.285950,590.775208 
	C739.795898,589.554688 756.555542,575.525879 761.440308,552.855164 
	C762.856201,546.283752 762.971924,539.325745 762.879150,532.555969 
	C762.609070,512.856201 749.587402,494.594360 730.679749,489.027863 
	C722.261902,486.549652 713.048828,486.552612 704.161316,485.961060 
	C697.269897,485.502380 690.323608,485.869385 682.977661,485.869385 
	C682.977661,493.918152 682.977661,501.209106 682.978577,509.500000 
z"/>
<path fill="#294C6E" opacity="1.000000" stroke="none" 
	d="
M784.944336,612.889954 
	C789.069946,608.476929 793.195496,604.063904 797.552124,599.447876 
	C797.817017,622.731567 798.869324,646.274780 797.568298,669.687317 
	C796.492615,689.044678 786.603149,703.776733 768.922791,713.614258 
	C708.569824,747.195190 648.534241,781.346558 588.377075,815.279541 
	C572.433350,824.272827 556.628845,833.525574 540.506531,842.186523 
	C521.983948,852.136902 503.036346,852.276245 484.656982,841.953857 
	C410.210541,800.142761 335.959106,757.983948 261.445465,716.293457 
	C249.782410,709.767883 239.093719,702.636536 233.903549,689.992371 
	C230.913452,682.707764 229.577011,674.744446 227.441650,666.701172 
	C231.564224,668.650757 235.741364,670.985779 240.394745,673.699890 
	C241.347229,675.575256 241.823441,677.071411 242.443604,678.889648 
	C246.855652,690.476501 254.688034,698.164429 265.204071,704.068237 
	C340.075867,746.102051 414.772461,788.447754 489.565247,830.622498 
	C504.671936,839.140930 520.034302,839.331665 535.223633,830.780090 
	C611.461792,787.858398 687.658020,744.862305 763.894958,701.938477 
	C776.885498,694.624329 784.147400,683.160522 784.904175,668.818237 
	C785.885193,650.226501 785.016663,631.537231 784.944336,612.889954 
z"/>
<path fill="#264A6C" opacity="1.000000" stroke="none" 
	d="
M239.938812,438.841278 
	C236.036713,438.804321 232.134598,438.767365 227.809601,438.615509 
	C227.376251,417.846649 227.271576,397.192230 227.380386,376.538910 
	C227.503189,353.227844 236.886795,335.655731 257.768372,323.714844 
	C332.268250,281.113129 406.544861,238.118240 480.709534,194.934723 
	C502.043304,182.512817 522.613831,182.086044 543.856018,194.758743 
	C561.570557,205.326843 579.668762,215.251740 597.655151,226.030655 
	C595.083008,229.429794 592.452820,232.259781 589.495239,235.038269 
	C587.777954,234.336884 586.388184,233.686996 584.772339,232.771973 
	C568.789490,223.523834 552.815002,214.897659 537.334290,205.461609 
	C520.464111,195.178680 504.319763,195.770767 487.448242,205.563110 
	C412.756470,248.914673 337.958130,292.083435 263.077332,335.107727 
	C247.287216,344.180267 240.245636,357.721466 240.117493,375.377106 
	C239.963943,396.531128 239.990341,417.686493 239.938812,438.841278 
z"/>
<path fill="#79E8EF" opacity="1.000000" stroke="none" 
	d="
M602.045532,228.085876 
	C604.328918,225.070267 606.612366,222.054642 609.246887,218.575333 
	C613.946106,222.079361 618.709229,225.103241 622.674683,228.949448 
	C623.699219,229.943130 622.220398,233.517654 621.548096,236.345337 
	C619.133118,241.096771 617.061584,245.409515 614.645020,249.837189 
	C607.542664,258.851135 607.978394,264.292603 616.122192,271.331055 
	C629.766907,284.391937 643.276733,297.146240 657.119202,310.214600 
	C654.413208,313.336182 651.881531,316.256622 649.226929,319.318970 
	C640.076294,310.568390 631.446533,302.315857 622.698730,293.757935 
	C620.089172,291.229492 617.597595,289.006470 614.947266,286.509155 
	C613.940552,285.625214 613.092712,285.015656 612.159424,284.112000 
	C610.187439,282.052338 608.300903,280.286774 606.414429,278.521240 
	C605.931396,278.802490 605.448425,279.083771 604.965454,279.365021 
	C604.320068,287.222656 603.674683,295.080322 602.929199,303.342957 
	C603.000244,309.329376 603.171387,314.910858 603.035706,320.780884 
	C602.836426,328.862488 602.943909,336.655518 603.054382,344.885132 
	C603.121704,345.604767 603.186096,345.887787 603.275879,346.617432 
	C603.443054,348.595123 603.584900,350.126282 603.379028,351.428619 
	C601.668213,347.714539 599.575623,344.331482 599.070435,340.725983 
	C597.058472,326.367706 594.865784,311.978485 594.044312,297.526611 
	C593.326843,284.903564 594.157166,272.172424 594.699280,259.505951 
	C594.994385,252.609970 596.112854,245.749191 596.967102,238.535660 
	C598.731323,234.827820 600.388428,231.456848 602.045532,228.085876 
z"/>
<path fill="#294C6E" opacity="1.000000" stroke="none" 
	d="
M641.134338,251.870453 
	C642.666382,252.348053 644.350769,252.560837 645.708069,253.342026 
	C678.764954,272.367126 711.789795,291.447754 744.800842,310.552246 
	C745.763489,311.109375 746.513916,312.033417 747.639404,313.265198 
	C745.535767,316.534332 743.156067,319.324646 740.443237,322.094757 
	C738.543579,321.308655 736.977051,320.542755 735.185181,319.506287 
	C715.576782,308.115906 696.193665,296.996094 677.807556,286.448242 
	C674.717285,290.172791 671.991638,293.457794 668.867981,297.222595 
	C657.708374,286.551392 646.943787,276.257904 636.592773,265.977234 
	C638.563354,265.892242 640.120422,265.794403 641.908936,265.682007 
	C641.630493,260.717224 641.382446,256.293823 641.134338,251.870453 
z"/>
<path fill="#264A6C" opacity="1.000000" stroke="none" 
	d="
M797.918884,476.297791 
	C793.815796,472.339386 789.788574,467.936096 785.623047,462.804810 
	C785.454285,433.675171 785.351868,405.273285 785.437744,376.871979 
	C785.463257,368.423248 784.330811,360.363892 779.877563,352.672028 
	C778.884094,350.601166 777.918823,348.863495 777.102905,346.812286 
	C779.938721,343.952057 782.625244,341.405334 785.311768,338.858643 
	C786.347473,339.828796 787.633301,340.637695 788.379456,341.794617 
	C794.347473,351.048340 797.998901,361.120667 798.019958,372.216980 
	C798.085449,406.762177 798.013428,441.307587 797.918884,476.297791 
z"/>
<path fill="#2E5D80" opacity="1.000000" stroke="none" 
	d="
M757.880798,315.795654 
	C758.547180,314.051849 759.213501,312.308075 760.460876,310.290802 
	C761.611145,311.790253 762.915283,313.699738 762.615845,315.311310 
	C761.598450,320.787048 760.301270,326.251343 758.569824,331.542938 
	C756.688599,337.292542 755.377319,343.794952 751.740845,348.288605 
	C743.613220,358.332153 735.859375,369.040222 723.177795,374.459198 
	C718.424866,376.490143 714.199219,379.972809 710.124512,383.276337 
	C708.237244,384.806458 707.287231,387.492676 705.649536,389.836273 
	C689.196228,396.150269 672.727112,401.055359 654.962952,401.045807 
	C652.925964,400.453888 651.146606,399.999847 649.373901,400.024628 
	C643.667969,400.104431 637.610840,401.684174 632.333801,400.273590 
	C621.364136,397.341370 610.687317,393.153717 600.166870,388.811737 
	C597.502991,387.712341 595.104004,384.413605 593.923157,381.569244 
	C590.330933,372.916809 587.365845,364.002319 584.230164,355.163757 
	C583.738525,353.778168 583.019714,352.042908 583.443115,350.831940 
	C586.441040,342.257477 579.731079,334.782257 580.827271,326.455292 
	C580.879883,326.055573 579.716980,325.495819 579.021606,324.550293 
	C579.762512,311.309692 580.601990,298.529358 581.816772,285.999878 
	C582.464661,288.180176 582.970703,290.110107 582.966736,292.039001 
	C582.954163,298.133789 582.148682,304.289520 582.762329,310.308289 
	C583.682434,319.333893 586.122681,328.215668 586.868713,337.245178 
	C587.884888,349.545197 592.745178,360.647369 596.858704,371.899506 
	C600.216553,381.084351 607.645142,386.718781 617.087158,390.344208 
	C629.083923,394.950531 641.024414,397.420197 653.790344,395.071777 
	C660.084167,393.914001 666.489075,393.303131 672.729736,391.927795 
	C680.634888,390.185669 688.687500,388.596527 696.190063,385.687103 
	C703.852295,382.715759 710.924683,378.224121 718.256592,374.400604 
	C726.033020,370.345367 733.858032,366.433197 738.933350,358.718201 
	C740.830505,355.834442 743.302673,353.287292 745.737793,350.807739 
	C750.527466,345.930481 753.555359,340.247650 754.984619,333.534424 
	C755.906982,329.201691 757.702820,325.058502 758.704102,320.736969 
	C759.052307,319.234131 758.190125,317.450836 757.880798,315.795654 
z"/>
<path fill="#3A7290" opacity="1.000000" stroke="none" 
	d="
M757.612305,315.977295 
	C758.190125,317.450836 759.052307,319.234131 758.704102,320.736969 
	C757.702820,325.058502 755.906982,329.201691 754.984619,333.534424 
	C753.555359,340.247650 750.527466,345.930481 745.737793,350.807739 
	C743.302673,353.287292 740.830505,355.834442 738.933350,358.718201 
	C733.858032,366.433197 726.033020,370.345367 718.256592,374.400604 
	C710.924683,378.224121 703.852295,382.715759 696.190063,385.687103 
	C688.687500,388.596527 680.634888,390.185669 672.729736,391.927795 
	C666.489075,393.303131 660.084167,393.914001 653.790344,395.071777 
	C641.024414,397.420197 629.083923,394.950531 617.087158,390.344208 
	C607.645142,386.718781 600.216553,381.084351 596.858704,371.899506 
	C592.745178,360.647369 587.884888,349.545197 586.868713,337.245178 
	C586.122681,328.215668 583.682434,319.333893 582.762329,310.308289 
	C582.148682,304.289520 582.954163,298.133789 582.966736,292.039001 
	C582.970703,290.110107 582.464661,288.180176 581.826782,285.575958 
	C583.569946,276.523834 585.678406,268.146454 588.073853,260.010010 
	C585.531982,274.945831 587.369690,289.783356 587.126404,304.552307 
	C587.045654,309.454010 587.662476,314.471008 588.718689,319.268341 
	C592.010620,334.220001 595.466614,349.143921 599.346130,363.950958 
	C600.130493,366.944550 603.049622,369.378815 605.054810,372.393982 
	C605.164307,373.375732 605.203613,374.034363 605.135742,375.092682 
	C605.322693,377.011108 605.616821,378.529846 606.000305,380.302856 
	C606.360107,380.777313 606.630493,380.997589 607.197632,381.436646 
	C608.994995,381.774384 610.495667,381.893311 612.036438,382.371918 
	C612.991455,383.615784 613.765076,385.002380 614.843201,385.305420 
	C624.186584,387.931335 633.169434,392.067017 643.165710,392.014374 
	C661.027466,391.920319 678.434814,388.847504 694.944214,382.275970 
	C705.055481,378.251160 714.739258,372.869385 724.036133,367.155212 
	C735.047913,360.387085 741.465454,349.083252 748.811951,338.885437 
	C750.084961,337.118439 749.034668,333.677673 749.214233,330.700073 
	C749.422241,329.357208 749.473572,328.324280 749.865601,327.118774 
	C751.825745,323.574188 753.445312,320.202209 755.064819,316.830200 
	C755.824524,316.606445 756.584167,316.382690 757.612305,315.977295 
z"/>
<path fill="#264F76" opacity="1.000000" stroke="none" 
	d="
M705.912292,389.654755 
	C707.287231,387.492676 708.237244,384.806458 710.124512,383.276337 
	C714.199219,379.972809 718.424866,376.490143 723.177795,374.459198 
	C735.859375,369.040222 743.613220,358.332153 751.740845,348.288605 
	C755.377319,343.794952 756.688599,337.292542 758.569824,331.542938 
	C760.301270,326.251343 761.598450,320.787048 762.615845,315.311310 
	C762.915283,313.699738 761.611145,311.790253 760.658386,309.998779 
	C761.221191,306.850403 762.167480,303.720581 763.279907,300.041260 
	C768.954956,303.650299 774.282532,306.898193 779.402283,310.445862 
	C780.167480,310.976105 780.434814,313.048615 780.115295,314.176147 
	C778.811890,318.776062 777.191040,323.286011 775.746399,327.650085 
	C778.931519,331.171051 782.085388,334.657532 785.275513,338.501312 
	C782.625244,341.405334 779.938721,343.952057 776.807617,346.644867 
	C774.042603,344.351715 771.722229,341.912476 769.145691,339.203979 
	C753.308105,363.524261 732.176392,379.845245 705.912292,389.654755 
z"/>
<path fill="#264F76" opacity="1.000000" stroke="none" 
	d="
M641.119629,251.896393 
	C641.382446,256.293823 641.630493,260.717224 641.908936,265.682007 
	C640.120422,265.794403 638.563354,265.892242 636.282532,265.837402 
	C632.101562,262.759918 628.644348,259.835083 625.014648,256.614960 
	C621.558105,254.120529 618.274048,251.921402 614.990051,249.722260 
	C617.061584,245.409515 619.133118,241.096771 621.554565,236.709351 
	C626.439209,240.308502 630.973999,243.982315 635.799744,248.234772 
	C637.779724,249.841339 639.468750,250.869247 641.157837,251.897156 
	C641.157837,251.897156 641.104919,251.922348 641.119629,251.896393 
z"/>
<path fill="#2E5D80" opacity="1.000000" stroke="none" 
	d="
M754.867798,316.561951 
	C753.445312,320.202209 751.825745,323.574188 749.548584,327.015503 
	C746.186096,325.428162 743.481201,323.771545 740.776367,322.114960 
	C743.156067,319.324646 745.535767,316.534332 747.952759,313.400452 
	C750.216919,314.135803 752.443909,315.214752 754.867798,316.561951 
z"/>
<path fill="#2E5D80" opacity="1.000000" stroke="none" 
	d="
M601.753540,227.929077 
	C600.388428,231.456848 598.731323,234.827820 596.700928,238.609360 
	C595.650452,239.296402 594.973328,239.572861 594.014893,239.661560 
	C592.429932,238.012436 591.126282,236.551117 589.822632,235.089783 
	C592.452820,232.259781 595.083008,229.429794 597.861938,226.294983 
	C599.161011,226.584213 600.311279,227.178253 601.753540,227.929077 
z"/>
<path fill="#2E5D80" opacity="1.000000" stroke="none" 
	d="
M227.302765,637.645020 
	C229.246307,637.195923 231.167618,637.195923 233.868668,637.195923 
	C231.671707,641.521057 229.719955,645.363464 227.581421,649.450195 
	C227.356628,645.827759 227.318573,641.960876 227.302765,637.645020 
z"/>
<path fill="#294C6E" opacity="1.000000" stroke="none" 
	d="
M641.080200,251.569565 
	C639.468750,250.869247 637.779724,249.841339 636.044312,248.470978 
	C637.666138,249.166336 639.334351,250.204147 641.080200,251.569565 
z"/>
<path fill="#FDFEFE" opacity="1.000000" stroke="none" 
	d="
M779.905823,353.005188 
	C784.330811,360.363892 785.463257,368.423248 785.437744,376.871979 
	C785.351868,405.273285 785.454285,433.675171 785.439453,462.547974 
	C782.382141,460.972351 779.375916,458.916931 776.357117,456.880188 
	C759.054626,445.206665 739.925171,439.131256 719.096069,438.968048 
	C690.599365,438.744720 662.099609,438.902496 633.601196,438.913727 
	C632.301758,438.914215 631.002380,439.079620 629.329407,439.193695 
	C629.329407,504.981140 629.329407,570.559937 629.329407,637.011353 
	C631.212585,637.011353 633.127319,637.011169 635.041992,637.011353 
	C660.373962,637.013794 685.708496,636.787476 711.037109,637.081055 
	C738.260498,637.396606 763.014893,630.671021 784.611572,612.973206 
	C785.016663,631.537231 785.885193,650.226501 784.904175,668.818237 
	C784.147400,683.160522 776.885498,694.624329 763.894958,701.938477 
	C687.658020,744.862305 611.461792,787.858398 535.223633,830.780090 
	C520.034302,839.331665 504.671936,839.140930 489.565247,830.622498 
	C414.772461,788.447754 340.075867,746.102051 265.204071,704.068237 
	C254.688034,698.164429 246.855652,690.476501 242.759094,678.594116 
	C246.935013,676.947998 249.203903,674.263184 250.818405,670.531494 
	C253.448822,664.451599 256.316284,658.460876 259.392639,652.594543 
	C260.505371,650.472656 262.152710,648.154114 264.170776,647.077271 
	C269.348206,644.314575 274.870300,642.197632 280.254578,639.822571 
	C287.929565,646.158752 295.625366,652.469971 303.272766,658.839294 
	C308.994049,663.604370 314.652985,668.444336 320.870514,673.699585 
	C323.485168,670.338135 325.856171,667.289978 328.291473,664.159119 
	C313.647644,651.706543 299.480988,639.659790 285.201691,626.985291 
	C288.956635,621.858154 294.508148,618.496399 295.304291,611.851562 
	C298.685486,614.451416 301.748535,616.906799 304.974091,619.640503 
	C316.853149,630.163330 328.569672,640.407837 340.510315,650.848267 
	C343.399872,647.451904 345.921112,644.488464 348.521667,641.431824 
	C339.885315,633.764587 331.692841,626.491455 323.845581,619.078491 
	C324.945404,618.303833 325.933105,617.810120 326.416565,617.011292 
	C329.394989,612.089905 333.275391,609.633972 339.194061,611.646729 
	C339.975189,611.912292 341.079498,611.227661 342.034088,610.983154 
	C346.823914,617.227417 351.877472,623.291138 356.318390,629.774475 
	C359.737488,634.766052 363.495575,638.215332 370.532349,637.307739 
	C375.066437,641.069336 379.044159,644.512085 382.873047,648.295593 
	C383.500610,651.614929 383.992004,654.707092 385.122589,657.544495 
	C386.670776,661.429932 388.257538,665.064392 385.642090,669.165161 
	C384.919067,670.298767 385.090637,672.002991 384.529114,673.311768 
	C376.407867,666.250366 368.520111,659.419128 360.860046,652.341370 
	C358.255310,649.934692 356.097961,649.164917 354.200867,652.595215 
	C352.630371,655.434937 346.970642,657.391052 352.827820,662.014404 
	C361.912933,669.185730 370.386871,677.131287 379.113525,685.144531 
	C379.419586,688.280884 380.395966,691.153564 379.882568,693.729309 
	C379.184021,697.234131 377.347626,700.512268 375.684692,703.785522 
	C362.617004,693.039917 349.863770,682.396362 336.781555,671.478210 
	C334.025818,674.592957 331.432587,677.524048 328.269409,681.099426 
	C345.431366,694.898743 362.258636,708.429016 379.241638,722.242920 
	C380.616760,723.496582 381.836243,724.466675 383.092651,725.804199 
	C382.907532,727.879944 381.903381,730.604126 382.589630,731.132324 
	C387.209503,734.688660 392.187988,737.779053 397.462341,741.015137 
	C400.246979,740.466248 403.431763,740.705811 404.846649,739.238586 
	C409.993011,733.901855 415.608215,728.579102 419.128571,722.193604 
	C430.339935,701.857544 433.448822,679.381409 433.900055,656.539734 
	C434.132294,644.783203 433.483337,632.999268 432.940826,621.241089 
	C432.568146,613.163574 431.288452,605.112793 431.218842,597.043091 
	C431.185303,593.149780 429.388062,588.021179 434.207184,585.502930 
	C436.684937,584.208252 439.817993,584.088257 442.686157,583.635010 
	C450.827484,582.348572 458.984863,581.163879 467.442322,580.104553 
	C468.401031,581.414673 469.189209,582.503723 469.685211,583.712585 
	C476.435699,600.165100 483.204498,616.610779 489.805664,633.123352 
	C490.857483,635.754456 491.963470,637.146606 495.099487,637.112732 
	C510.083099,636.950928 525.070862,637.132874 540.052490,636.897095 
	C541.677002,636.871521 544.125793,635.304810 544.753357,633.837524 
	C556.259583,606.934143 567.566101,579.945190 578.873779,552.957092 
	C592.364075,520.759705 605.825989,488.550476 619.274109,456.335480 
	C621.604736,450.752472 623.806274,445.115570 626.234436,439.088959 
	C622.959351,438.887024 620.492554,438.734924 617.954590,438.239502 
	C616.659668,434.647675 615.192444,431.467224 614.261536,428.136841 
	C612.147339,420.573273 616.718506,411.922089 623.009766,411.007263 
	C634.277161,409.368744 645.645813,408.184479 656.763550,405.826630 
	C667.576660,403.533386 678.604187,404.798981 689.508667,401.425446 
	C708.347351,395.597137 727.682556,391.501160 744.423523,380.297150 
	C753.131409,374.469391 762.123779,368.844940 767.521912,359.556030 
	C770.500916,354.429840 774.041748,351.922363 779.905823,353.005188 
z"/>
<path fill="#FDFEFE" opacity="1.000000" stroke="none" 
	d="
M240.409042,438.845276 
	C239.990341,417.686493 239.963943,396.531128 240.117493,375.377106 
	C240.245636,357.721466 247.287216,344.180267 263.077332,335.107727 
	C337.958130,292.083435 412.756470,248.914673 487.448242,205.563110 
	C504.319763,195.770767 520.464111,195.178680 537.334290,205.461609 
	C552.815002,214.897659 568.789490,223.523834 584.761597,233.185242 
	C582.887085,244.045776 581.763916,254.550186 578.499268,264.340515 
	C572.381226,282.687836 571.869934,301.458038 572.042847,320.383209 
	C572.159668,333.167847 572.448792,345.960815 573.105408,358.727173 
	C573.554199,367.454254 570.405945,372.855377 562.423523,374.652405 
	C557.928040,375.664459 553.342041,376.762878 548.774414,376.870087 
	C537.236633,377.140900 525.807129,378.964996 514.395996,379.562622 
	C498.209869,380.410339 484.258514,388.108276 468.929962,391.262604 
	C463.967041,392.283905 459.219360,395.357422 454.893890,398.266449 
	C445.031372,404.899384 434.885101,411.127594 427.316956,420.793488 
	C423.278412,425.951508 420.932800,432.970398 413.679749,435.310028 
	C412.849335,435.577881 412.533386,437.440491 411.711060,438.684448 
	C411.255188,438.857971 411.067139,438.910645 410.474670,438.973114 
	C408.722900,438.984802 407.375580,438.986725 406.028229,438.988647 
	C388.583618,438.988647 371.139008,438.988647 353.166351,438.988647 
	C353.166351,473.254242 353.166351,507.121826 353.166351,540.989380 
	C352.813599,541.126465 352.460846,541.263550 352.108124,541.400635 
	C345.604675,532.909973 339.069000,524.443787 332.603882,515.924072 
	C314.006134,491.415955 295.409515,466.906799 276.898651,442.333160 
	C275.029297,439.851593 273.093323,438.716492 269.861023,438.793213 
	C260.205444,439.022339 250.540543,438.859222 240.409042,438.845276 
z"/>
<path fill="#224A73" opacity="1.000000" stroke="none" 
	d="
M408.102295,471.520782 
	C408.458557,471.394806 408.587952,471.148926 408.649658,470.441284 
	C411.195648,464.690613 413.582397,459.281769 416.237457,454.109802 
	C420.604431,464.439667 424.703064,474.532623 428.540649,484.919495 
	C426.994995,492.351227 425.710358,499.489014 424.250763,507.065735 
	C423.791290,512.016968 423.506805,516.529358 423.129456,521.493896 
	C423.899841,531.154175 418.104126,541.617004 428.558167,548.642517 
	C427.389984,549.941833 426.629578,550.787659 424.789612,552.834229 
	C435.835602,551.318359 445.415619,550.003662 455.255829,548.938477 
	C458.653229,556.783142 461.790375,564.378296 464.564026,572.054932 
	C462.467316,572.447937 460.734131,572.759460 458.551819,573.010254 
	C453.734711,573.366272 449.366791,573.782837 444.559296,574.122375 
	C439.080841,574.441711 434.041962,574.838074 428.712799,575.162720 
	C427.642883,575.188843 426.863281,575.286682 425.655518,575.324219 
	C424.603333,575.835693 423.406281,576.449585 423.444855,576.972412 
	C423.790253,581.657532 424.353119,586.326660 424.692871,591.277588 
	C424.978912,591.841431 425.424164,592.128113 425.468201,592.759888 
	C425.226227,597.572571 425.253784,602.049438 425.567230,606.506165 
	C426.986908,626.690796 427.522736,646.859436 424.537262,666.996460 
	C423.462036,666.995911 422.745544,666.995361 422.022430,666.566895 
	C422.018036,664.427124 422.020264,662.715332 422.312378,660.709167 
	C423.645081,648.817017 425.130066,637.179871 418.779449,626.391907 
	C418.227173,625.453796 418.257233,624.176575 417.999054,623.060974 
	C416.335815,615.874023 414.637177,608.695007 413.014038,601.498962 
	C412.219238,597.975098 410.112701,596.480225 406.558105,596.969177 
	C406.453857,596.316040 406.258667,595.662903 406.258331,595.009705 
	C406.238586,556.468689 406.234955,517.927673 406.416138,478.650238 
	C407.102417,475.782776 407.602356,473.651794 408.102295,471.520782 
z"/>
<path fill="#77E4EC" opacity="1.000000" stroke="none" 
	d="
M379.119934,684.748596 
	C370.386871,677.131287 361.912933,669.185730 352.827820,662.014404 
	C346.970642,657.391052 352.630371,655.434937 354.200867,652.595215 
	C356.097961,649.164917 358.255310,649.934692 360.860046,652.341370 
	C368.520111,659.419128 376.407867,666.250366 384.630615,673.599487 
	C389.693634,678.074829 394.332550,682.128906 400.171143,687.231384 
	C401.168121,678.440796 401.994049,671.158508 402.820618,663.417603 
	C402.544250,657.679688 402.267303,652.400391 402.288208,646.837341 
	C403.530060,637.355835 403.530060,637.355835 395.011108,636.824829 
	C395.135498,636.016968 394.965271,634.912598 395.431732,634.448914 
	C398.652466,631.247803 402.006042,628.180359 405.709167,625.466309 
	C406.625763,632.382629 406.920197,638.931274 407.727814,645.416077 
	C408.973419,655.417908 411.618225,665.360840 411.762268,675.356201 
	C411.957245,688.885498 410.317963,702.439209 409.575317,715.988403 
	C409.522034,716.960938 410.364655,717.982605 410.744446,719.314636 
	C406.148956,726.772034 401.599640,733.896179 397.050354,741.020325 
	C392.187988,737.779053 387.209503,734.688660 382.589630,731.132324 
	C381.903381,730.604126 382.907532,727.879944 383.451050,725.743530 
	C385.809570,721.950134 387.846710,718.584900 390.185486,715.012207 
	C392.166748,710.878479 394.003906,707.008545 395.438202,702.994690 
	C395.922638,701.638855 396.024719,699.221619 395.212799,698.477600 
	C390.017426,693.716919 384.518799,689.287170 379.119934,684.748596 
z"/>
<path fill="#F1FBFB" opacity="1.000000" stroke="none" 
	d="
M279.119843,589.954834 
	C279.119843,569.583130 279.119843,549.211426 279.119843,528.839783 
	C279.595215,528.585144 280.070587,528.330505 280.545929,528.075928 
	C291.430847,542.868774 302.315765,557.661621 313.015564,573.053223 
	C301.593567,579.086243 290.356689,584.520508 279.119843,589.954834 
z"/>
<path fill="#488AA4" opacity="1.000000" stroke="none" 
	d="
M410.790680,718.981384 
	C410.364655,717.982605 409.522034,716.960938 409.575317,715.988403 
	C410.317963,702.439209 411.957245,688.885498 411.762268,675.356201 
	C411.618225,665.360840 408.973419,655.417908 407.727814,645.416077 
	C406.920197,638.931274 406.625763,632.382629 406.057007,625.430664 
	C406.082581,621.915466 406.152466,618.832092 406.680420,615.416809 
	C407.618622,615.528076 408.415527,615.900330 408.532806,616.424683 
	C412.086456,632.311462 417.967651,647.704346 418.133514,664.323120 
	C418.175995,668.579468 419.968842,672.818481 420.949768,677.384644 
	C420.943542,678.131409 420.945099,678.558838 420.668396,679.252991 
	C420.637848,681.718811 420.885468,683.917908 421.115265,686.433838 
	C421.038055,687.168640 420.978638,687.586670 420.627014,688.038452 
	C420.028900,688.397217 419.722992,688.722351 419.417114,689.047485 
	C419.921509,689.365417 420.425903,689.683411 420.971619,690.391602 
	C417.605499,700.181641 414.198090,709.581543 410.790680,718.981384 
z"/>
<path fill="#EEFAF9" opacity="1.000000" stroke="none" 
	d="
M280.111053,639.463867 
	C274.870300,642.197632 269.348206,644.314575 264.170776,647.077271 
	C262.152710,648.154114 260.505371,650.472656 259.392639,652.594543 
	C256.316284,658.460876 253.448822,664.451599 250.818405,670.531494 
	C249.203903,674.263184 246.935013,676.947998 242.615143,678.272095 
	C241.823441,677.071411 241.347229,675.575256 240.739517,673.769287 
	C245.728516,662.435913 250.760086,651.369080 256.074829,640.439941 
	C256.790710,638.967712 258.867340,637.361023 260.425110,637.239258 
	C265.699829,636.826904 271.029510,636.926575 276.326477,637.131897 
	C277.563812,637.179810 278.755066,638.415771 280.111053,639.463867 
z"/>
<path fill="#EEFAF9" opacity="1.000000" stroke="none" 
	d="
M341.891602,610.692444 
	C341.079498,611.227661 339.975189,611.912292 339.194061,611.646729 
	C333.275391,609.633972 329.394989,612.089905 326.416565,617.011292 
	C325.933105,617.810120 324.945404,618.303833 323.549622,618.959412 
	C320.024933,616.614502 317.141388,614.248779 314.089630,611.586487 
	C310.588867,608.484131 307.256317,605.678406 303.996918,602.526855 
	C310.733337,599.746887 317.396576,597.312744 324.337402,595.070068 
	C329.061615,598.837952 333.508240,602.414307 337.954895,605.990601 
	C339.219604,607.460938 340.484344,608.931335 341.891602,610.692444 
z"/>
<path fill="#264F76" opacity="1.000000" stroke="none" 
	d="
M401.990356,647.121094 
	C402.267303,652.400391 402.544250,657.679688 402.521851,663.314514 
	C395.822266,658.431641 389.422058,653.193237 383.021851,647.954834 
	C379.044159,644.512085 375.066437,641.069336 370.966431,637.303772 
	C377.222076,636.983643 383.599976,636.986328 390.574646,637.327637 
	C394.777710,640.817871 398.384033,643.969482 401.990356,647.121094 
z"/>
<path fill="#264F76" opacity="1.000000" stroke="none" 
	d="
M279.061707,590.382263 
	C290.356689,584.520508 301.593567,579.086243 313.125061,573.406860 
	C315.567993,575.835571 317.716278,578.509338 319.814270,581.766174 
	C317.048981,582.906555 314.316711,583.391663 311.622803,584.036926 
	C306.704529,585.214905 301.644714,586.053101 296.944916,587.829407 
	C290.859711,590.129272 285.069214,593.208862 279.151855,595.952759 
	C279.102448,594.238403 279.053009,592.524048 279.061707,590.382263 
z"/>
<path fill="#264F76" opacity="1.000000" stroke="none" 
	d="
M406.434631,597.402222 
	C410.112701,596.480225 412.219238,597.975098 413.014038,601.498962 
	C414.637177,608.695007 416.335815,615.874023 417.999054,623.060974 
	C418.257233,624.176575 418.227173,625.453796 418.779449,626.391907 
	C425.130066,637.179871 423.645081,648.817017 422.016235,660.423645 
	C420.340698,653.269897 419.615662,646.027771 418.074219,638.963867 
	C415.895355,628.978821 413.237396,619.090576 410.468628,609.249695 
	C409.999512,607.582275 407.945251,606.360779 406.623322,604.933289 
	C406.519257,602.567261 406.415192,600.201294 406.434631,597.402222 
z"/>
<path fill="#2E5D80" opacity="1.000000" stroke="none" 
	d="
M406.477539,605.370056 
	C407.945251,606.360779 409.999512,607.582275 410.468628,609.249695 
	C413.237396,619.090576 415.895355,628.978821 418.074219,638.963867 
	C419.615662,646.027771 420.340698,653.269897 421.726318,660.717957 
	C422.020264,662.715332 422.018036,664.427124 421.726898,666.850830 
	C421.277832,670.730286 421.117676,673.897827 420.957550,677.065430 
	C419.968842,672.818481 418.175995,668.579468 418.133514,664.323120 
	C417.967651,647.704346 412.086456,632.311462 408.532806,616.424683 
	C408.415527,615.900330 407.618622,615.528076 406.817230,614.973511 
	C406.441223,611.843628 406.386475,608.825256 406.477539,605.370056 
z"/>
<path fill="#77E4EC" opacity="1.000000" stroke="none" 
	d="
M324.059845,594.878540 
	C317.396576,597.312744 310.733337,599.746887 303.616241,602.518555 
	C299.443085,604.856873 295.723724,606.857788 291.637665,608.882141 
	C287.272095,611.638000 283.273254,614.370422 279.274384,617.102844 
	C274.682007,614.430237 279.680573,611.458435 279.417389,608.314392 
	C281.533325,607.454224 283.454712,607.285034 284.919556,606.378357 
	C297.895355,598.346252 312.431793,594.652893 326.989960,590.992310 
	C327.305206,591.337891 327.620453,591.683472 327.658112,592.417603 
	C326.273651,593.497009 325.166748,594.187805 324.059845,594.878540 
z"/>
<path fill="#F1FBFB" opacity="1.000000" stroke="none" 
	d="
M415.969147,453.872925 
	C413.582397,459.281769 411.195648,464.690613 408.471985,470.294983 
	C407.415314,468.907471 406.109406,467.337646 406.073425,465.739258 
	C405.879883,457.139404 406.001984,448.532501 406.021667,439.458344 
	C407.375580,438.986725 408.722900,438.984802 410.544952,439.348938 
	C412.669495,444.434296 414.319336,449.153595 415.969147,453.872925 
z"/>
<path fill="#488AA4" opacity="1.000000" stroke="none" 
	d="
M323.349579,585.928650 
	C323.828674,586.457092 324.307739,586.985474 324.623444,588.036194 
	C313.643585,592.184814 302.793518,595.715271 292.027222,599.484924 
	C287.711395,600.996094 283.579803,603.033386 279.364349,604.831177 
	C279.302185,603.470337 279.240051,602.109558 279.570618,600.306030 
	C282.554016,598.851990 285.191071,597.944336 287.727509,596.811462 
	C299.154541,591.707520 310.738892,587.146729 323.349579,585.928650 
z"/>
<path fill="#3A7290" opacity="1.000000" stroke="none" 
	d="
M323.235138,585.614746 
	C310.738892,587.146729 299.154541,591.707520 287.727509,596.811462 
	C285.191071,597.944336 282.554016,598.851990 279.611755,599.897705 
	C279.176453,598.869507 279.092743,597.806885 279.080444,596.348511 
	C285.069214,593.208862 290.859711,590.129272 296.944916,587.829407 
	C301.644714,586.053101 306.704529,585.214905 311.622803,584.036926 
	C314.316711,583.391663 317.048981,582.906555 320.030823,582.029663 
	C321.238708,582.906982 322.179718,584.103943 323.235138,585.614746 
z"/>
<path fill="#EEFAF9" opacity="1.000000" stroke="none" 
	d="
M279.242493,617.501465 
	C283.273254,614.370422 287.272095,611.638000 291.861023,609.086670 
	C293.296112,610.080872 294.141113,610.894043 294.986145,611.707153 
	C294.508148,618.496399 288.956635,621.858154 285.034912,626.696777 
	C281.560730,624.936035 278.079559,622.874573 279.242493,617.501465 
z"/>
<path fill="#5DAEBF" opacity="1.000000" stroke="none" 
	d="
M279.257874,605.205078 
	C283.579803,603.033386 287.711395,600.996094 292.027222,599.484924 
	C302.793518,595.715271 313.643585,592.184814 324.708496,588.293213 
	C325.544464,588.831848 326.131989,589.635681 326.854736,590.715942 
	C312.431793,594.652893 297.895355,598.346252 284.919556,606.378357 
	C283.454712,607.285034 281.533325,607.454224 279.440552,607.925171 
	C279.088776,607.116394 279.120056,606.347656 279.257874,605.205078 
z"/>
<path fill="#EEFAF9" opacity="1.000000" stroke="none" 
	d="
M402.288208,646.837341 
	C398.384033,643.969482 394.777710,640.817871 391.036255,637.358521 
	C391.998840,637.014221 393.096497,636.977722 394.602661,636.882996 
	C403.530060,637.355835 403.530060,637.355835 402.288208,646.837341 
z"/>
<path fill="#264F76" opacity="1.000000" stroke="none" 
	d="
M324.337402,595.070068 
	C325.166748,594.187805 326.273651,593.497009 327.692780,592.660950 
	C331.328003,596.770935 334.650970,601.026184 337.964417,605.635986 
	C333.508240,602.414307 329.061615,598.837952 324.337402,595.070068 
z"/>
<path fill="#F1FBFB" opacity="1.000000" stroke="none" 
	d="
M407.676819,471.637451 
	C407.602356,473.651794 407.102417,475.782776 406.337524,478.219879 
	C406.465515,476.268677 406.858429,474.011414 407.676819,471.637451 
z"/>
<path fill="#FEFEFE" opacity="1.000000" stroke="none" 
	d="
M682.978149,509.000000 
	C682.977661,501.209106 682.977661,493.918152 682.977661,485.869385 
	C690.323608,485.869385 697.269897,485.502380 704.161316,485.961060 
	C713.048828,486.552612 722.261902,486.549652 730.679749,489.027863 
	C749.587402,494.594360 762.609070,512.856201 762.879150,532.555969 
	C762.971924,539.325745 762.856201,546.283752 761.440308,552.855164 
	C756.555542,575.525879 739.795898,589.554688 716.285950,590.775208 
	C705.511841,591.334534 694.684570,590.870300 682.978577,590.870300 
	C682.978577,563.574463 682.978577,536.537231 682.978149,509.000000 
z"/>
<path fill="#F1FBFB" opacity="1.000000" stroke="none" 
	d="
M411.978912,438.563660 
	C412.533386,437.440491 412.849335,435.577881 413.679749,435.310028 
	C420.932800,432.970398 423.278412,425.951508 427.316956,420.793488 
	C434.885101,411.127594 445.031372,404.899384 454.893890,398.266449 
	C459.219360,395.357422 463.967041,392.283905 468.929962,391.262604 
	C484.258514,388.108276 498.209869,380.410339 514.395996,379.562622 
	C525.807129,378.964996 537.236633,377.140900 548.774414,376.870087 
	C553.342041,376.762878 557.928040,375.664459 562.423523,374.652405 
	C570.405945,372.855377 573.554199,367.454254 573.105408,358.727173 
	C572.448792,345.960815 572.159668,333.167847 572.042847,320.383209 
	C571.869934,301.458038 572.381226,282.687836 578.499268,264.340515 
	C581.763916,254.550186 582.887085,244.045776 584.987549,233.450378 
	C586.388184,233.686996 587.777954,234.336884 589.495239,235.038269 
	C591.126282,236.551117 592.429932,238.012436 593.842041,240.029327 
	C591.895874,246.979614 589.841370,253.374344 587.786865,259.769073 
	C585.678406,268.146454 583.569946,276.523834 581.451477,285.325134 
	C580.601990,298.529358 579.762512,311.309692 578.952759,325.013428 
	C579.593994,340.290283 580.205444,354.643677 580.452515,369.005127 
	C576.392517,373.704071 572.696838,378.394989 568.611816,383.240723 
	C566.588989,383.595093 564.960449,383.904633 563.321350,383.977509 
	C544.090271,384.832275 524.967834,386.606812 506.182098,391.010315 
	C477.007202,397.849121 450.271667,409.162933 430.455658,432.916565 
	C428.945007,434.727386 427.773132,436.820801 425.947632,438.814850 
	C420.960632,438.752441 416.469757,438.658051 411.978912,438.563660 
z"/>
<path fill="#FAFCFB" opacity="1.000000" stroke="none" 
	d="
M625.187134,256.910248 
	C628.644348,259.835083 632.101562,262.759918 635.869019,265.824585 
	C646.943787,276.257904 657.708374,286.551392 668.867981,297.222595 
	C671.991638,293.457794 674.717285,290.172791 677.807556,286.448242 
	C696.193665,296.996094 715.576782,308.115906 734.854309,319.723969 
	C734.556335,321.125336 734.005066,322.138184 734.226929,322.936096 
	C736.469971,331.004486 736.506714,330.999908 728.702332,332.892914 
	C728.073792,333.045349 727.410767,333.056183 726.449585,333.043518 
	C712.856445,320.530945 699.577454,308.107635 685.267822,294.720154 
	C683.780029,296.792603 682.776917,298.553589 681.432068,299.996033 
	C677.130310,304.610107 677.262573,304.369507 681.872009,308.651703 
	C692.672546,318.685242 703.282043,328.924316 713.976807,339.486084 
	C712.163025,348.070068 714.418640,349.009064 704.864380,349.130676 
	C703.458313,349.148590 702.073242,350.814484 700.376709,351.541687 
	C688.646973,340.560272 677.218994,329.755066 665.606262,318.775116 
	C662.589355,322.132599 659.962830,325.055695 657.336243,327.978821 
	C657.977173,327.573547 658.618103,327.168304 659.259033,326.763062 
	C667.838501,336.189880 676.418030,345.616669 684.937378,355.391418 
	C681.349792,359.255280 677.144775,360.477203 672.175537,360.126923 
	C670.499451,360.008759 668.719299,361.367188 666.689453,361.931671 
	C665.629517,361.478180 664.866760,361.143829 664.040039,360.478210 
	C657.929138,354.309357 651.882263,348.471802 645.640015,342.445648 
	C642.658630,345.782959 640.124329,348.619812 637.109680,351.994385 
	C641.790405,356.256805 646.344543,360.403931 650.512695,364.711029 
	C647.875244,365.782196 645.316833,367.871277 643.430908,367.379791 
	C638.152588,366.004211 632.680237,364.296448 628.144653,361.381470 
	C619.819214,356.030823 616.904602,346.828888 614.157715,337.900909 
	C613.627319,336.177002 614.822388,333.922180 615.529053,332.031738 
	C620.164978,336.162689 624.493347,340.174194 629.034912,344.383331 
	C631.949890,341.050232 634.543152,338.084991 637.302673,334.929565 
	C630.213745,328.189972 623.372131,321.685577 616.874146,315.050049 
	C620.772583,313.734924 619.336182,311.647095 618.261475,309.519135 
	C614.276428,301.628662 610.599609,293.650787 612.244812,284.406067 
	C613.092712,285.015656 613.940552,285.625214 614.916382,286.898682 
	C615.753174,291.979553 618.879517,293.506195 622.816711,294.063324 
	C631.446533,302.315857 640.076294,310.568390 649.226929,319.318970 
	C651.881531,316.256622 654.413208,313.336182 657.119202,310.214600 
	C643.276733,297.146240 629.766907,284.391937 616.185486,270.974182 
	C617.040283,268.797028 618.841797,267.218201 618.734802,265.781433 
	C618.360413,260.751343 621.762390,258.920837 625.187134,256.910248 
z"/>
<path fill="#EEFAF9" opacity="1.000000" stroke="none" 
	d="
M615.221497,331.912292 
	C614.822388,333.922180 613.627319,336.177002 614.157715,337.900909 
	C616.904602,346.828888 619.819214,356.030823 628.144653,361.381470 
	C632.680237,364.296448 638.152588,366.004211 643.430908,367.379791 
	C645.316833,367.871277 647.875244,365.782196 650.766968,364.837158 
	C652.475037,365.603790 653.542847,366.404297 654.780273,367.501801 
	C657.980957,370.605194 661.012085,373.411560 663.835327,376.534058 
	C656.456360,377.559906 649.285278,378.269684 641.895386,378.722534 
	C636.787170,374.032074 631.897705,369.598602 626.836914,365.009766 
	C623.954773,368.141357 621.312195,371.012695 618.502991,374.065002 
	C621.002380,376.492432 623.233643,378.659485 625.054382,380.903503 
	C624.382385,381.076324 624.120911,381.172119 623.477661,381.213684 
	C622.067139,381.159668 621.038391,381.159851 619.550171,381.085815 
	C615.027466,381.080353 610.964172,381.149109 606.900879,381.217896 
	C606.630493,380.997589 606.360107,380.777313 606.080688,379.912109 
	C605.795471,377.742401 605.519226,376.217712 605.242920,374.693024 
	C605.203613,374.034363 605.164307,373.375732 605.142578,371.939331 
	C605.120422,368.120026 605.080811,365.078430 605.319031,362.221741 
	C607.160217,363.771149 608.723511,365.135681 610.374817,366.576965 
	C613.104858,363.393677 615.537170,360.557495 618.123718,357.541412 
	C613.221069,353.212555 608.646851,349.173737 603.855713,344.906219 
	C603.442932,344.601196 603.247131,344.524841 603.051392,344.448517 
	C602.943909,336.655518 602.836426,328.862488 603.316345,320.977783 
	C607.676331,324.561462 611.448914,328.236877 615.221497,331.912292 
z"/>
<path fill="#5DAEBF" opacity="1.000000" stroke="none" 
	d="
M605.041138,362.036865 
	C605.080811,365.078430 605.120422,368.120026 605.072388,371.616272 
	C603.049622,369.378815 600.130493,366.944550 599.346130,363.950958 
	C595.466614,349.143921 592.010620,334.220001 588.718689,319.268341 
	C587.662476,314.471008 587.045654,309.454010 587.126404,304.552307 
	C587.369690,289.783356 585.531982,274.945831 588.073853,260.010010 
	C589.841370,253.374344 591.895874,246.979614 594.123291,240.217102 
	C594.973328,239.572861 595.650452,239.296402 596.593750,238.946243 
	C596.112854,245.749191 594.994385,252.609970 594.699280,259.505951 
	C594.157166,272.172424 593.326843,284.903564 594.044312,297.526611 
	C594.865784,311.978485 597.058472,326.367706 599.070435,340.725983 
	C599.575623,344.331482 601.668213,347.714539 603.483154,351.711548 
	C604.303650,355.494446 604.672424,358.765656 605.041138,362.036865 
z"/>
<path fill="#264F76" opacity="1.000000" stroke="none" 
	d="
M615.529053,332.031738 
	C611.448914,328.236877 607.676331,324.561462 603.623108,320.689209 
	C603.171387,314.910858 603.000244,309.329376 603.213379,303.514954 
	C607.908569,307.248352 612.219604,311.214752 616.530579,315.181152 
	C623.372131,321.685577 630.213745,328.189972 637.302673,334.929565 
	C634.543152,338.084991 631.949890,341.050232 629.034912,344.383331 
	C624.493347,340.174194 620.164978,336.162689 615.529053,332.031738 
z"/>
<path fill="#EEFAF9" opacity="1.000000" stroke="none" 
	d="
M616.874146,315.050049 
	C612.219604,311.214752 607.908569,307.248352 603.313477,303.109985 
	C603.674683,295.080322 604.320068,287.222656 604.965454,279.365021 
	C605.448425,279.083771 605.931396,278.802490 606.414429,278.521240 
	C608.300903,280.286774 610.187439,282.052338 612.159424,284.112000 
	C610.599609,293.650787 614.276428,301.628662 618.261475,309.519135 
	C619.336182,311.647095 620.772583,313.734924 616.874146,315.050049 
z"/>
<path fill="#EEFAF9" opacity="1.000000" stroke="none" 
	d="
M625.014648,256.614960 
	C621.762390,258.920837 618.360413,260.751343 618.734802,265.781433 
	C618.841797,267.218201 617.040283,268.797028 616.050659,270.667633 
	C607.978394,264.292603 607.542664,258.851135 614.645020,249.837204 
	C618.274048,251.921402 621.558105,254.120529 625.014648,256.614960 
z"/>
<path fill="#2E5D80" opacity="1.000000" stroke="none" 
	d="
M605.318970,362.221741 
	C604.672424,358.765656 604.303650,355.494446 603.830811,351.940308 
	C603.584900,350.126282 603.443054,348.595123 603.448608,346.475281 
	C603.823486,345.679474 603.982361,345.428925 604.072693,345.134918 
	C608.646851,349.173737 613.221069,353.212555 618.123718,357.541412 
	C615.537170,360.557495 613.104858,363.393677 610.374817,366.576965 
	C608.723511,365.135681 607.160217,363.771149 605.318970,362.221741 
z"/>
<path fill="#EEFAF9" opacity="1.000000" stroke="none" 
	d="
M622.698730,293.757935 
	C618.879517,293.506195 615.753174,291.979553 615.075134,287.173035 
	C617.597595,289.006470 620.089172,291.229492 622.698730,293.757935 
z"/>
<path fill="#5DAEBF" opacity="1.000000" stroke="none" 
	d="
M603.855713,344.906219 
	C603.982361,345.428925 603.823486,345.679474 603.423340,346.028687 
	C603.186096,345.887787 603.121704,345.604767 603.054382,344.885132 
	C603.247131,344.524841 603.442932,344.601196 603.855713,344.906219 
z"/>
<path fill="#EEFAF9" opacity="1.000000" stroke="none" 
	d="
M726.763794,333.132812 
	C727.410767,333.056183 728.073792,333.045349 728.702332,332.892914 
	C736.506714,330.999908 736.469971,331.004486 734.226929,322.936096 
	C734.005066,322.138184 734.556335,321.125336 735.079712,319.994568 
	C736.977051,320.542755 738.543579,321.308655 740.443237,322.094757 
	C743.481201,323.771545 746.186096,325.428162 749.207886,327.188049 
	C749.473572,328.324280 749.422241,329.357208 748.898560,330.793549 
	C747.558533,332.702332 746.690918,334.207703 745.540649,335.889648 
	C744.094360,337.631317 742.930725,339.196411 741.862915,340.799805 
	C741.958801,340.838074 741.755676,340.800964 741.459595,340.929321 
	C739.821289,342.090088 738.479126,343.122528 737.008423,343.831757 
	C733.507812,340.049957 730.135803,336.591370 726.763794,333.132812 
z"/>
<path fill="#EEFAF9" opacity="1.000000" stroke="none" 
	d="
M779.877563,352.672028 
	C774.041748,351.922363 770.500916,354.429840 767.521912,359.556030 
	C762.123779,368.844940 753.131409,374.469391 744.423523,380.297150 
	C727.682556,391.501160 708.347351,395.597137 689.508667,401.425446 
	C678.604187,404.798981 667.576660,403.533386 656.763550,405.826630 
	C645.645813,408.184479 634.277161,409.368744 623.009766,411.007263 
	C616.718506,411.922089 612.147339,420.573273 614.261536,428.136841 
	C615.192444,431.467224 616.659668,434.647675 617.503906,438.352997 
	C613.723328,438.817657 610.322327,438.825500 606.935120,438.375305 
	C606.948914,427.047760 606.948914,416.178284 606.948914,405.158966 
	C609.745483,405.031097 611.561157,405.003937 613.367065,404.856628 
	C627.320374,403.718475 641.271667,402.557098 655.223633,401.402893 
	C672.727112,401.055359 689.196228,396.150269 705.649536,389.836273 
	C732.176392,379.845245 753.308105,363.524261 769.145691,339.203979 
	C771.722229,341.912476 774.042603,344.351715 776.658325,346.958374 
	C777.918823,348.863495 778.884094,350.601166 779.877563,352.672028 
z"/>
<path fill="#224971" opacity="1.000000" stroke="none" 
	d="
M654.962952,401.045807 
	C641.271667,402.557098 627.320374,403.718475 613.367065,404.856628 
	C611.561157,405.003937 609.745483,405.031097 606.948914,405.158966 
	C606.948914,416.178284 606.948914,427.047760 606.469849,438.398499 
	C598.555481,438.861694 591.120239,438.843658 583.666504,438.386353 
	C583.707520,436.115845 583.973633,434.261658 583.773315,432.459320 
	C583.532104,430.289612 583.551270,427.598816 582.292725,426.136047 
	C579.616272,423.025421 576.186279,420.563110 573.032715,417.489136 
	C573.820862,415.809143 574.641418,414.475006 575.749756,412.977966 
	C577.466248,411.270996 578.894897,409.726990 580.277527,408.232727 
	C581.621826,409.017395 582.625244,409.603088 584.035645,410.426331 
	C583.869751,408.659912 583.766174,407.556915 583.622986,406.031586 
	C577.002563,407.263550 569.916443,404.178650 565.013733,409.191895 
	C555.910156,405.473724 547.346497,408.602112 538.444580,408.994141 
	C533.272278,409.725800 528.510071,410.487915 523.359253,411.186890 
	C515.006714,412.777069 507.042725,414.430450 497.688232,416.372498 
	C503.679291,421.361694 508.463257,425.345673 513.444336,429.618347 
	C519.346252,434.937317 525.050964,439.967590 530.952393,445.171295 
	C528.097351,448.283844 525.563354,451.046326 522.903198,453.946289 
	C512.801819,445.171631 503.044769,436.696106 493.130310,427.958069 
	C491.366333,426.252350 489.894775,424.603058 488.108978,423.433563 
	C486.768646,422.555817 484.612000,421.405365 483.528748,421.907593 
	C477.699280,424.610504 472.091827,427.792297 466.076630,430.813354 
	C464.040894,432.114960 462.065643,433.176178 460.687317,434.757629 
	C457.717560,438.165039 454.231689,439.169830 449.762817,438.949371 
	C442.005951,438.566742 434.218445,438.804993 426.443787,438.782898 
	C427.773132,436.820801 428.945007,434.727386 430.455658,432.916565 
	C450.271667,409.162933 477.007202,397.849121 506.182098,391.010315 
	C524.967834,386.606812 544.090271,384.832275 563.321350,383.977509 
	C564.960449,383.904633 566.588989,383.595093 569.072021,383.323517 
	C573.945618,383.251526 577.969543,383.251526 582.478149,383.251526 
	C581.838684,377.764862 581.327759,373.380981 580.816895,368.997070 
	C580.205444,354.643677 579.593994,340.290283 579.051392,325.473755 
	C579.716980,325.495819 580.879883,326.055573 580.827271,326.455292 
	C579.731079,334.782257 586.441040,342.257477 583.443115,350.831940 
	C583.019714,352.042908 583.738525,353.778168 584.230164,355.163757 
	C587.365845,364.002319 590.330933,372.916809 593.923157,381.569244 
	C595.104004,384.413605 597.502991,387.712341 600.166870,388.811737 
	C610.687317,393.153717 621.364136,397.341370 632.333801,400.273590 
	C637.610840,401.684174 643.667969,400.104431 649.373901,400.024628 
	C651.146606,399.999847 652.925964,400.453888 654.962952,401.045807 
z"/>
<path fill="#488AA4" opacity="1.000000" stroke="none" 
	d="
M745.823303,335.713074 
	C746.690918,334.207703 747.558533,332.702332 748.741821,331.103485 
	C749.034668,333.677673 750.084961,337.118439 748.811951,338.885437 
	C741.465454,349.083252 735.047913,360.387085 724.036133,367.155212 
	C714.739258,372.869385 705.055481,378.251160 694.944214,382.275970 
	C678.434814,388.847504 661.027466,391.920319 643.165710,392.014374 
	C633.169434,392.067017 624.186584,387.931335 614.843201,385.305420 
	C613.765076,385.002380 612.991455,383.615784 612.462524,382.317902 
	C614.564514,381.937500 616.280518,381.970764 618.044312,382.375366 
	C618.588318,383.375397 618.984070,384.421051 619.596313,384.568665 
	C626.022339,386.118195 632.431213,388.431854 638.943665,388.803894 
	C660.774353,390.050964 682.083557,387.032867 701.649536,376.781738 
	C713.240051,370.709137 725.949402,365.760498 733.857849,354.431213 
	C736.837463,350.162689 742.933167,347.516357 741.755676,340.800964 
	C741.755676,340.800964 741.958801,340.838074 742.240967,340.844452 
	C743.623169,339.138245 744.723206,337.425659 745.823303,335.713074 
z"/>
<path fill="#77E4EC" opacity="1.000000" stroke="none" 
	d="
M617.996582,382.004059 
	C616.280518,381.970764 614.564514,381.937500 612.422363,381.958221 
	C610.495667,381.893311 608.994995,381.774384 607.197632,381.436676 
	C610.964172,381.149109 615.027466,381.080353 619.354858,381.286682 
	C619.078186,381.709167 618.537415,381.856598 617.996582,382.004059 
z"/>
<path fill="#5DAEBF" opacity="1.000000" stroke="none" 
	d="
M605.135742,375.092682 
	C605.519226,376.217712 605.795471,377.742401 605.991333,379.657867 
	C605.616821,378.529846 605.322693,377.011108 605.135742,375.092682 
z"/>
<path fill="#7EE7F0" opacity="1.000000" stroke="none" 
	d="
M583.684937,438.825623 
	C591.120239,438.843658 598.555481,438.861694 606.456055,438.856567 
	C610.322327,438.825500 613.723328,438.817657 617.575073,438.696320 
	C620.492554,438.734924 622.959351,438.887024 626.234436,439.088959 
	C623.806274,445.115570 621.604736,450.752472 619.274109,456.335480 
	C605.825989,488.550476 592.364075,520.759705 578.873779,552.957092 
	C567.566101,579.945190 556.259583,606.934143 544.753357,633.837524 
	C544.125793,635.304810 541.677002,636.871521 540.052490,636.897095 
	C525.070862,637.132874 510.083099,636.950928 495.099487,637.112732 
	C491.963470,637.146606 490.857483,635.754456 489.805664,633.123352 
	C483.204498,616.610779 476.435699,600.165100 469.685211,583.712585 
	C469.189209,582.503723 468.401031,581.414673 467.411072,579.725159 
	C466.358154,576.778015 465.642853,574.375732 464.927551,571.973389 
	C461.790375,564.378296 458.653229,556.783142 455.061890,548.636963 
	C452.617523,542.750488 450.627319,537.415161 448.430756,531.526550 
	C445.809998,533.798889 443.894958,535.459351 442.193542,536.934631 
	C435.592682,531.404846 429.407501,526.223267 423.222290,521.041687 
	C423.506805,516.529358 423.791290,512.016968 424.566223,507.188721 
	C431.378296,511.904724 437.699921,516.936646 444.071167,522.103149 
	C444.199188,522.286682 444.277557,522.335571 444.355927,522.384460 
	C444.225983,522.264893 444.096008,522.145386 444.006287,521.632812 
	C438.964874,509.035065 433.883301,496.830322 428.801697,484.625580 
	C424.703064,474.532623 420.604431,464.439667 416.237457,454.109802 
	C414.319336,449.153595 412.669495,444.434296 410.949371,439.339172 
	C411.067139,438.910645 411.255188,438.857971 411.711060,438.684448 
	C416.469757,438.658051 420.960632,438.752441 425.947632,438.814880 
	C434.218445,438.804993 442.005951,438.566742 449.762817,438.949371 
	C454.231689,439.169830 457.717560,438.165039 460.687317,434.757629 
	C462.065643,433.176178 464.040894,432.114960 466.444702,430.917267 
	C470.266754,433.411133 473.389618,435.805634 476.649170,438.519714 
	C487.180145,448.542206 497.574432,458.245117 508.070496,468.043030 
	C506.659851,469.730072 505.470154,471.107056 504.330444,472.524261 
	C500.658325,477.090729 500.056061,477.144104 495.759430,473.252808 
	C491.441193,469.341949 487.139221,465.412537 482.780609,461.547089 
	C479.854828,458.952393 476.842865,456.454926 473.869446,453.913940 
	C473.531982,454.141541 473.194550,454.369141 472.857117,454.596741 
	C479.049255,470.730225 485.241425,486.863708 491.569000,503.350098 
	C493.749939,501.978394 495.253784,501.032532 496.880096,500.009674 
	C501.977936,504.370911 507.011261,508.676910 512.185669,513.284668 
	C518.938049,519.682861 525.549194,525.779297 531.819031,532.017212 
	C528.152649,533.506836 524.827698,534.854980 521.130737,536.123291 
	C513.154968,529.736755 505.551056,523.429932 497.947144,517.123169 
	C497.650482,517.313782 497.353821,517.504333 497.057129,517.694946 
	C500.336761,525.746643 503.616364,533.798279 506.943604,542.231201 
	C510.703644,549.812866 511.477448,558.444031 517.944763,565.621643 
	C525.266235,554.856018 527.989624,542.952087 532.968018,531.693604 
	C535.443909,524.969116 537.765503,518.583130 540.375488,511.984253 
	C542.158264,507.852203 543.652710,503.932983 545.402588,499.779510 
	C547.404358,495.240723 548.783813,490.735779 550.996338,486.685974 
	C553.378235,482.325958 551.797729,479.933319 548.395020,477.221222 
	C542.613708,472.613251 537.178406,467.571198 531.535339,462.657257 
	C532.600952,461.049744 533.286804,459.924042 534.060608,458.862427 
	C538.615051,452.613922 538.930847,452.649902 544.453674,457.801208 
	C548.625916,461.692719 552.986694,465.382111 557.789429,469.626129 
	C560.125305,463.726257 561.973938,458.597473 564.192627,453.634094 
	C565.423340,450.880737 564.996399,449.006378 562.744263,447.109650 
	C559.377808,444.274536 556.182739,441.236023 552.674561,438.067078 
	C555.712708,434.773346 558.352600,431.911377 560.963623,429.080750 
	C562.578247,430.259064 563.778320,431.134796 565.123596,432.314270 
	C569.707336,439.731293 576.747192,439.126953 583.684937,438.825623 
M472.554626,452.561462 
	C472.554626,452.561462 472.478424,452.614197 472.554626,452.561462 
z"/>
<path fill="#F1FBFB" opacity="1.000000" stroke="none" 
	d="
M464.564026,572.054932 
	C465.642853,574.375732 466.358154,576.778015 467.104675,579.559753 
	C458.984863,581.163879 450.827484,582.348572 442.686157,583.635010 
	C439.817993,584.088257 436.684937,584.208252 434.207184,585.502930 
	C429.388062,588.021179 431.185303,593.149780 431.218842,597.043091 
	C431.288452,605.112793 432.568146,613.163574 432.940826,621.241089 
	C433.483337,632.999268 434.132294,644.783203 433.900055,656.539734 
	C433.448822,679.381409 430.339935,701.857544 419.128571,722.193604 
	C415.608215,728.579102 409.993011,733.901855 404.846649,739.238586 
	C403.431763,740.705811 400.246979,740.466248 397.462341,741.015137 
	C401.599640,733.896179 406.148956,726.772034 410.744446,719.314636 
	C414.198090,709.581543 417.605499,700.181641 421.062347,690.062256 
	C421.047607,688.896729 420.983429,688.450745 420.919220,688.004761 
	C420.978638,687.586670 421.038055,687.168640 421.429749,686.244507 
	C421.955872,684.119263 422.149719,682.500122 422.656738,680.596924 
	C423.368286,677.565125 423.766632,674.817383 424.349396,671.860229 
	C424.562622,671.103516 424.591400,670.556152 424.755554,669.648682 
	C424.892609,668.524536 424.894287,667.760498 424.895966,666.996521 
	C427.522736,646.859436 426.986908,626.690796 425.567230,606.506165 
	C425.253784,602.049438 425.226227,597.572571 425.484314,592.614502 
	C425.551727,591.749573 425.201904,591.375000 424.852081,591.000488 
	C424.353119,586.326660 423.790253,581.657532 423.444855,576.972412 
	C423.406281,576.449585 424.603333,575.835693 425.631714,575.706726 
	C426.264069,576.977905 426.492035,577.806396 427.029175,579.758240 
	C427.991669,577.552429 428.497375,576.393433 429.003082,575.234436 
	C434.041962,574.838074 439.080841,574.441711 444.636108,574.469788 
	C448.186493,575.914429 451.168335,577.490173 454.270782,577.781494 
	C456.821075,578.021118 459.708496,576.924133 459.000977,573.070923 
	C460.734131,572.759460 462.467316,572.447937 464.564026,572.054932 
z"/>
<path fill="#264F76" opacity="1.000000" stroke="none" 
	d="
M379.085938,721.959229 
	C362.258636,708.429016 345.431366,694.898743 328.269409,681.099426 
	C331.432587,677.524048 334.025818,674.592957 336.781555,671.478210 
	C349.863770,682.396362 362.617004,693.039917 375.855743,704.080322 
	C378.921997,706.921326 381.502747,709.365417 384.059814,712.196655 
	C382.386047,715.708862 380.735992,718.834045 379.085938,721.959229 
z"/>
<path fill="#224A73" opacity="1.000000" stroke="none" 
	d="
M314.257843,611.883118 
	C317.141388,614.248779 320.024933,616.614502 323.204407,619.099243 
	C331.692841,626.491455 339.885315,633.764587 348.521667,641.431824 
	C345.921112,644.488464 343.399872,647.451904 340.510315,650.848267 
	C328.569672,640.407837 316.853149,630.163330 305.124817,619.310486 
	C308.161346,616.429138 311.209595,614.156128 314.257843,611.883118 
z"/>
<path fill="#EEFAF9" opacity="1.000000" stroke="none" 
	d="
M382.873047,648.295593 
	C389.422058,653.193237 395.822266,658.431641 402.521210,663.773132 
	C401.994049,671.158508 401.168121,678.440796 400.171143,687.231384 
	C394.332550,682.128906 389.693634,678.074829 384.953217,673.733032 
	C385.090637,672.002991 384.919067,670.298767 385.642090,669.165161 
	C388.257538,665.064392 386.670776,661.429932 385.122589,657.544495 
	C383.992004,654.707092 383.500610,651.614929 382.873047,648.295593 
z"/>
<path fill="#EEFAF9" opacity="1.000000" stroke="none" 
	d="
M384.083496,711.809570 
	C381.502747,709.365417 378.921997,706.921326 376.170197,704.182373 
	C377.347626,700.512268 379.184021,697.234131 379.882568,693.729309 
	C380.395966,691.153564 379.419586,688.280884 379.113525,685.144531 
	C384.518799,689.287170 390.017426,693.716919 395.212799,698.477600 
	C396.024719,699.221619 395.922638,701.638855 395.438202,702.994690 
	C394.003906,707.008545 392.166748,710.878479 389.885010,714.842407 
	C387.549774,713.856567 385.816620,712.833069 384.083496,711.809570 
z"/>
<path fill="#2E5D80" opacity="1.000000" stroke="none" 
	d="
M314.089630,611.586487 
	C311.209595,614.156128 308.161346,616.429138 304.962341,619.032104 
	C301.748535,616.906799 298.685486,614.451416 295.304291,611.851562 
	C294.141113,610.894043 293.296112,610.080872 292.227722,609.063232 
	C295.723724,606.857788 299.443085,604.856873 303.543091,602.864258 
	C307.256317,605.678406 310.588867,608.484131 314.089630,611.586487 
z"/>
<path fill="#2E5D80" opacity="1.000000" stroke="none" 
	d="
M384.059814,712.196655 
	C385.816620,712.833069 387.549774,713.856567 389.583374,715.049866 
	C387.846710,718.584900 385.809570,721.950134 383.414093,725.376099 
	C381.836243,724.466675 380.616760,723.496582 379.241638,722.242920 
	C380.735992,718.834045 382.386047,715.708862 384.059814,712.196655 
z"/>
<path fill="#EEFAF9" opacity="1.000000" stroke="none" 
	d="
M423.129456,521.493896 
	C429.407501,526.223267 435.592682,531.404846 442.193542,536.934631 
	C443.894958,535.459351 445.809998,533.798889 448.430756,531.526550 
	C450.627319,537.415161 452.617523,542.750488 454.801666,548.387451 
	C445.415619,550.003662 435.835602,551.318359 424.789612,552.834229 
	C426.629578,550.787659 427.389984,549.941833 428.558167,548.642517 
	C418.104126,541.617004 423.899841,531.154175 423.129456,521.493896 
z"/>
<path fill="#F1FBFB" opacity="1.000000" stroke="none" 
	d="
M428.540649,484.919495 
	C433.883301,496.830322 438.964874,509.035065 444.021698,521.619995 
	C443.996918,522.000183 444.021545,521.968567 444.021545,521.968567 
	C437.699921,516.936646 431.378296,511.904724 424.741211,506.749817 
	C425.710358,499.489014 426.994995,492.351227 428.540649,484.919495 
z"/>
<path fill="#EEFAF9" opacity="1.000000" stroke="none" 
	d="
M458.551819,573.010254 
	C459.708496,576.924133 456.821075,578.021118 454.270782,577.781494 
	C451.168335,577.490173 448.186493,575.914429 445.075684,574.546814 
	C449.366791,573.782837 453.734711,573.366272 458.551819,573.010254 
z"/>
<path fill="#264F76" opacity="1.000000" stroke="none" 
	d="
M424.537262,666.996460 
	C424.894287,667.760498 424.892609,668.524536 424.485291,669.709351 
	C424.108093,670.776672 424.136536,671.423157 424.164978,672.069580 
	C423.766632,674.817383 423.368286,677.565125 422.514832,680.218872 
	C421.688660,679.745300 421.317657,679.365845 420.946625,678.986328 
	C420.945099,678.558838 420.943542,678.131409 420.949768,677.384644 
	C421.117676,673.897827 421.277832,670.730286 421.733490,667.278748 
	C422.745544,666.995361 423.462036,666.995911 424.537262,666.996460 
z"/>
<path fill="#EEFAF9" opacity="1.000000" stroke="none" 
	d="
M428.712799,575.162720 
	C428.497375,576.393433 427.991669,577.552429 427.029175,579.758240 
	C426.492035,577.806396 426.264069,576.977905 426.059875,575.766968 
	C426.863281,575.286682 427.642883,575.188843 428.712799,575.162720 
z"/>
<path fill="#EEFAF9" opacity="1.000000" stroke="none" 
	d="
M424.692871,591.277588 
	C425.201904,591.375000 425.551727,591.749573 425.885498,592.269470 
	C425.424164,592.128113 424.978912,591.841431 424.692871,591.277588 
z"/>
<path fill="#2E5D80" opacity="1.000000" stroke="none" 
	d="
M420.668396,679.252991 
	C421.317657,679.365845 421.688660,679.745300 422.201630,680.502930 
	C422.149719,682.500122 421.955872,684.119263 421.447571,685.927734 
	C420.885468,683.917908 420.637848,681.718811 420.668396,679.252991 
z"/>
<path fill="#2E5D80" opacity="1.000000" stroke="none" 
	d="
M420.627014,688.038452 
	C420.983429,688.450745 421.047607,688.896729 421.021057,689.671997 
	C420.425903,689.683411 419.921509,689.365417 419.417114,689.047485 
	C419.722992,688.722351 420.028900,688.397217 420.627014,688.038452 
z"/>
<path fill="#EEFAF9" opacity="1.000000" stroke="none" 
	d="
M580.452515,369.005127 
	C581.327759,373.380981 581.838684,377.764862 582.478149,383.251526 
	C577.969543,383.251526 573.945618,383.251526 569.461426,383.168701 
	C572.696838,378.394989 576.392517,373.704071 580.452515,369.005127 
z"/>
<path fill="#7EE7F0" opacity="1.000000" stroke="none" 
	d="
M726.449585,333.043518 
	C730.135803,336.591370 733.507812,340.049957 736.929321,344.155273 
	C734.080078,346.921387 731.181213,349.040802 727.940063,351.052490 
	C723.054749,346.989868 718.511780,343.035034 713.968872,339.080170 
	C703.282043,328.924316 692.672546,318.685242 681.872009,308.651703 
	C677.262573,304.369507 677.130310,304.610107 681.432068,299.996033 
	C682.776917,298.553589 683.780029,296.792603 685.267822,294.720154 
	C699.577454,308.107635 712.856445,320.530945 726.449585,333.043518 
z"/>
<path fill="#264F76" opacity="1.000000" stroke="none" 
	d="
M684.997498,355.043518 
	C676.418030,345.616669 667.838501,336.189880 659.259033,326.763062 
	C658.618103,327.168304 657.977173,327.573547 657.336243,327.978821 
	C659.962830,325.055695 662.589355,322.132599 665.606262,318.775116 
	C677.218994,329.755066 688.646973,340.560272 700.525208,351.813965 
	C704.345520,355.541748 707.715454,358.821106 710.920898,362.409790 
	C706.869324,364.428589 702.982300,366.138031 698.923035,367.565430 
	C694.166321,363.203400 689.581909,359.123444 684.997498,355.043518 
z"/>
<path fill="#EEFAF9" opacity="1.000000" stroke="none" 
	d="
M684.937378,355.391449 
	C689.581909,359.123444 694.166321,363.203400 698.679565,367.856689 
	C692.088562,370.263123 685.568726,372.096191 678.911377,373.624847 
	C674.844788,369.563904 670.915710,365.807373 666.986694,362.050842 
	C668.719299,361.367188 670.499451,360.008759 672.175537,360.126923 
	C677.144775,360.477203 681.349792,359.255280 684.937378,355.391449 
z"/>
<path fill="#264F76" opacity="1.000000" stroke="none" 
	d="
M654.610657,367.204773 
	C653.542847,366.404297 652.475037,365.603790 651.152954,364.677185 
	C646.344543,360.403931 641.790405,356.256805 637.109680,351.994385 
	C640.124329,348.619812 642.658630,345.782959 645.640015,342.445648 
	C651.882263,348.471802 657.929138,354.309357 663.822388,360.776855 
	C660.649414,363.339417 657.630005,365.272064 654.610657,367.204773 
z"/>
<path fill="#EEFAF9" opacity="1.000000" stroke="none" 
	d="
M711.085449,362.100433 
	C707.715454,358.821106 704.345520,355.541748 700.827026,351.990173 
	C702.073242,350.814484 703.458313,349.148590 704.864380,349.130676 
	C714.418640,349.009064 712.163025,348.070068 713.976807,339.486084 
	C718.511780,343.035034 723.054749,346.989868 727.882629,351.350952 
	C727.774353,352.465698 727.381104,353.174225 726.739807,353.980408 
	C726.298218,354.363953 726.104675,354.649933 725.950500,354.925293 
	C725.989807,354.914673 725.911865,354.891022 725.560547,354.921295 
	C720.501282,357.334503 715.793396,359.717468 711.085449,362.100433 
z"/>
<path fill="#2E5D80" opacity="1.000000" stroke="none" 
	d="
M654.780273,367.501770 
	C657.630005,365.272064 660.649414,363.339417 663.886475,361.108093 
	C664.866760,361.143829 665.629517,361.478180 666.689453,361.931702 
	C670.915710,365.807373 674.844788,369.563904 678.544189,373.788513 
	C673.557495,374.910431 668.800293,375.564209 664.043152,376.217957 
	C661.012085,373.411560 657.980957,370.605194 654.780273,367.501770 
z"/>
<path fill="#5DAEBF" opacity="1.000000" stroke="none" 
	d="
M726.987915,353.882782 
	C727.381104,353.174225 727.774353,352.465698 728.224976,351.458679 
	C731.181213,349.040802 734.080078,346.921387 737.057922,344.478455 
	C738.479126,343.122528 739.821289,342.090088 741.459595,340.929321 
	C742.933167,347.516357 736.837463,350.162689 733.857849,354.431213 
	C725.949402,365.760498 713.240051,370.709137 701.649536,376.781738 
	C682.083557,387.032867 660.774353,390.050964 638.943665,388.803894 
	C632.431213,388.431854 626.022339,386.118195 619.596313,384.568665 
	C618.984070,384.421051 618.588318,383.375397 618.044312,382.375366 
	C618.537415,381.856598 619.078186,381.709167 619.814331,381.360901 
	C621.038391,381.159851 622.067139,381.159668 623.622314,381.555359 
	C630.257874,382.962646 636.336609,384.537628 642.482361,384.868164 
	C655.253906,385.555023 667.672180,383.681793 680.183289,380.404877 
	C695.096191,376.498871 707.908020,368.878143 720.851990,361.263092 
	C723.033203,359.979797 724.249695,357.056580 725.911865,354.891052 
	C725.911865,354.891022 725.989807,354.914673 726.208557,354.844849 
	C726.614197,354.477600 726.801025,354.180176 726.987915,353.882782 
z"/>
<path fill="#77E4EC" opacity="1.000000" stroke="none" 
	d="
M725.560547,354.921326 
	C724.249695,357.056580 723.033203,359.979797 720.851990,361.263092 
	C707.908020,368.878143 695.096191,376.498871 680.183289,380.404877 
	C667.672180,383.681793 655.253906,385.555023 642.482361,384.868164 
	C636.336609,384.537628 630.257874,382.962646 624.004150,381.609528 
	C624.120911,381.172119 624.382385,381.076324 625.449097,380.900879 
	C631.540894,380.207306 636.827576,379.593384 642.114197,378.979492 
	C649.285278,378.269684 656.456360,377.559906 663.835327,376.534058 
	C668.800293,375.564209 673.557495,374.910431 678.681763,374.092957 
	C685.568726,372.096191 692.088562,370.263123 698.851868,368.138733 
	C702.982300,366.138031 706.869324,364.428589 710.920898,362.409790 
	C715.793396,359.717468 720.501282,357.334503 725.560547,354.921326 
z"/>
<path fill="#2E5D80" opacity="1.000000" stroke="none" 
	d="
M641.895386,378.722504 
	C636.827576,379.593384 631.540894,380.207306 625.859619,380.823883 
	C623.233643,378.659485 621.002380,376.492432 618.502991,374.065002 
	C621.312195,371.012695 623.954773,368.141357 626.836914,365.009766 
	C631.897705,369.598602 636.787170,374.032074 641.895386,378.722504 
z"/>
<path fill="#5DAEBF" opacity="1.000000" stroke="none" 
	d="
M745.540649,335.889648 
	C744.723206,337.425659 743.623169,339.138245 742.145081,340.806152 
	C742.930725,339.196411 744.094360,337.631317 745.540649,335.889648 
z"/>
<path fill="#FAFDFC" opacity="1.000000" stroke="none" 
	d="
M564.978333,432.010529 
	C563.778320,431.134796 562.578247,430.259064 560.963623,429.080750 
	C558.352600,431.911377 555.712708,434.773346 552.674561,438.067078 
	C556.182739,441.236023 559.377808,444.274536 562.744263,447.109650 
	C564.996399,449.006378 565.423340,450.880737 564.192627,453.634094 
	C561.973938,458.597473 560.125305,463.726257 557.789429,469.626129 
	C552.986694,465.382111 548.625916,461.692719 544.453674,457.801208 
	C538.930847,452.649902 538.615051,452.613922 534.060608,458.862427 
	C533.286804,459.924042 532.600952,461.049744 531.535339,462.657257 
	C537.178406,467.571198 542.613708,472.613251 548.395020,477.221222 
	C551.797729,479.933319 553.378235,482.325958 550.996338,486.685974 
	C548.783813,490.735779 547.404358,495.240723 545.111328,499.596802 
	C535.367493,491.635498 526.170471,483.622650 516.794312,475.453766 
	C513.999878,478.651611 511.509033,481.502045 508.883759,484.506348 
	C515.658508,490.673920 522.252258,496.676727 528.452271,502.765533 
	C527.766785,504.301849 526.966125,505.871368 527.273010,507.181427 
	C528.480408,512.335632 527.038635,514.326538 521.762695,513.970398 
	C518.515869,513.751282 515.283447,513.319336 512.044556,512.982910 
	C507.011261,508.676910 501.977936,504.370911 496.880096,500.009674 
	C495.253784,501.032532 493.749939,501.978394 491.569000,503.350098 
	C485.241425,486.863708 479.049255,470.730225 472.857117,454.596741 
	C473.194550,454.369141 473.531982,454.141541 473.869446,453.913940 
	C476.842865,456.454926 479.854828,458.952393 482.780609,461.547089 
	C487.139221,465.412537 491.441193,469.341949 495.759430,473.252808 
	C500.056061,477.144104 500.658325,477.090729 504.330444,472.524261 
	C505.470154,471.107056 506.659851,469.730072 508.070496,468.043030 
	C497.574432,458.245117 487.180145,448.542206 477.047638,438.439575 
	C478.356628,437.099457 479.663910,436.327606 480.402893,435.187378 
	C482.716125,431.618011 485.282684,429.180145 490.061493,430.682587 
	C490.805359,430.916412 492.196106,429.092773 493.287720,428.220581 
	C503.044769,436.696106 512.801819,445.171631 522.903198,453.946289 
	C525.563354,451.046326 528.097351,448.283844 530.952393,445.171295 
	C525.050964,439.967590 519.346252,434.937317 513.825073,429.472260 
	C515.310059,427.645660 516.561157,426.201752 517.929199,424.878693 
	C518.996460,423.846436 520.102112,422.352203 521.376709,422.129944 
	C525.247375,421.455017 529.208374,421.297638 533.340820,421.030670 
	C533.809570,421.298492 533.987244,421.537201 534.058350,422.230042 
	C534.483826,427.558075 537.526184,429.211334 542.361206,429.110718 
	C544.723022,428.149475 546.791138,427.045166 549.260803,425.956055 
	C550.810608,425.142456 552.481140,424.563812 553.018372,423.442261 
	C555.606201,418.039642 558.774658,413.232574 565.241333,412.521851 
	C568.585083,412.154297 572.051147,412.898804 575.461914,413.140900 
	C574.641418,414.475006 573.820862,415.809143 573.013916,417.898926 
	C573.936829,426.397980 572.625122,428.574493 564.978333,432.010529 
z"/>
<path fill="#EEFAF9" opacity="1.000000" stroke="none" 
	d="
M575.749756,412.977966 
	C572.051147,412.898804 568.585083,412.154297 565.241333,412.521851 
	C558.774658,413.232574 555.606201,418.039642 553.018372,423.442261 
	C552.481140,424.563812 550.810608,425.142456 549.397583,425.655762 
	C549.983826,423.999023 550.834839,422.657806 551.685791,421.316589 
	C551.259094,421.619781 550.832458,421.922943 550.405762,422.226135 
	C546.555359,417.825653 542.704956,413.425140 538.854614,409.024658 
	C547.346497,408.602112 555.910156,405.473724 565.013733,409.191895 
	C569.916443,404.178650 577.002563,407.263550 583.622986,406.031586 
	C583.766174,407.556915 583.869751,408.659912 584.035645,410.426331 
	C582.625244,409.603088 581.621826,409.017395 580.277527,408.232727 
	C578.894897,409.726990 577.466248,411.270996 575.749756,412.977966 
z"/>
<path fill="#EEFAF9" opacity="1.000000" stroke="none" 
	d="
M533.134155,420.938690 
	C529.208374,421.297638 525.247375,421.455017 521.376709,422.129944 
	C520.102112,422.352203 518.996460,423.846436 517.929199,424.878693 
	C516.561157,426.201752 515.310059,427.645660 513.627869,429.183563 
	C508.463257,425.345673 503.679291,421.361694 497.688232,416.372498 
	C507.042725,414.430450 515.006714,412.777069 523.446777,411.515442 
	C526.993347,414.917633 530.063782,417.928162 533.134155,420.938690 
z"/>
<path fill="#7EE7F0" opacity="1.000000" stroke="none" 
	d="
M533.340820,421.030670 
	C530.063782,417.928162 526.993347,414.917633 523.835327,411.578583 
	C528.510071,410.487915 533.272278,409.725800 538.444580,408.994141 
	C542.704956,413.425140 546.555359,417.825653 550.405762,422.226135 
	C550.832458,421.922943 551.259094,421.619781 551.685791,421.316589 
	C550.834839,422.657806 549.983826,423.999023 548.996094,425.640564 
	C546.791138,427.045166 544.723022,428.149475 542.210571,428.812012 
	C539.204346,426.193085 536.642456,424.015961 534.080505,421.838806 
	C533.987244,421.537201 533.809570,421.298492 533.340820,421.030670 
z"/>
<path fill="#EEFAF9" opacity="1.000000" stroke="none" 
	d="
M565.123596,432.314270 
	C572.625122,428.574493 573.936829,426.397980 573.046326,418.244812 
	C576.186279,420.563110 579.616272,423.025421 582.292725,426.136047 
	C583.551270,427.598816 583.532104,430.289612 583.773315,432.459320 
	C583.973633,434.261658 583.707520,436.115845 583.666504,438.386353 
	C576.747192,439.126953 569.707336,439.731293 565.123596,432.314270 
z"/>
<path fill="#EEFAF9" opacity="1.000000" stroke="none" 
	d="
M493.130310,427.958069 
	C492.196106,429.092773 490.805359,430.916412 490.061493,430.682587 
	C485.282684,429.180145 482.716125,431.618011 480.402893,435.187378 
	C479.663910,436.327606 478.356628,437.099457 476.910950,438.119995 
	C473.389618,435.805634 470.266754,433.411133 466.775818,430.912720 
	C472.091827,427.792297 477.699280,424.610504 483.528748,421.907593 
	C484.612000,421.405365 486.768646,422.555817 488.108978,423.433563 
	C489.894775,424.603058 491.366333,426.252350 493.130310,427.958069 
z"/>
<path fill="#264F76" opacity="1.000000" stroke="none" 
	d="
M528.846008,502.679504 
	C522.252258,496.676727 515.658508,490.673920 508.883759,484.506348 
	C511.509033,481.502045 513.999878,478.651611 516.794312,475.453766 
	C526.170471,483.622650 535.367493,491.635498 544.855835,499.831055 
	C543.652710,503.932983 542.158264,507.852203 540.082764,511.788025 
	C535.949829,508.762909 532.397949,505.721222 528.846008,502.679504 
z"/>
<path fill="#264F76" opacity="1.000000" stroke="none" 
	d="
M521.502686,536.203125 
	C524.827698,534.854980 528.152649,533.506836 531.977722,532.072632 
	C532.477783,531.986511 532.813660,532.032043 532.813660,532.032043 
	C527.989624,542.952087 525.266235,554.856018 517.944763,565.621643 
	C511.477448,558.444031 510.703644,549.812866 507.282166,542.090942 
	C512.216309,539.780579 516.859497,537.991882 521.502686,536.203125 
z"/>
<path fill="#F1FBFB" opacity="1.000000" stroke="none" 
	d="
M532.968018,531.693604 
	C532.813660,532.032043 532.477783,531.986511 532.319092,531.931091 
	C525.549194,525.779297 518.938049,519.682861 512.185669,513.284668 
	C515.283447,513.319336 518.515869,513.751282 521.762695,513.970398 
	C527.038635,514.326538 528.480408,512.335632 527.273010,507.181427 
	C526.966125,505.871368 527.766785,504.301849 528.452271,502.765503 
	C532.397949,505.721222 535.949829,508.762909 539.794434,512.000854 
	C537.765503,518.583130 535.443909,524.969116 532.968018,531.693604 
z"/>
<path fill="#EEFAF9" opacity="1.000000" stroke="none" 
	d="
M521.130737,536.123291 
	C516.859497,537.991882 512.216309,539.780579 507.234558,541.709656 
	C503.616364,533.798279 500.336761,525.746643 497.057129,517.694946 
	C497.353821,517.504333 497.650482,517.313782 497.947144,517.123169 
	C505.551056,523.429932 513.154968,529.736755 521.130737,536.123291 
z"/>
<path fill="#FAFDFC" opacity="1.000000" stroke="none" 
	d="
M472.516541,452.587830 
	C472.478424,452.614197 472.554626,452.561462 472.516541,452.587830 
z"/>
<path fill="#F1FBFB" opacity="1.000000" stroke="none" 
	d="
M443.981506,522.013000 
	C444.096008,522.145386 444.225983,522.264893 444.355927,522.384460 
	C444.277557,522.335571 444.199188,522.286682 444.071167,522.103149 
	C444.021545,521.968567 443.996918,522.000183 443.981506,522.013000 
z"/>
<path fill="#224A73" opacity="1.000000" stroke="none" 
	d="
M424.349396,671.860229 
	C424.136536,671.423157 424.108093,670.776672 424.349915,670.069519 
	C424.591400,670.556152 424.562622,671.103516 424.349396,671.860229 
z"/>
<path fill="#77E4EC" opacity="1.000000" stroke="none" 
	d="
M726.739807,353.980408 
	C726.801025,354.180176 726.614197,354.477600 726.169250,354.855469 
	C726.104675,354.649933 726.298218,354.363953 726.739807,353.980408 
z"/>
<path fill="#EEFAF9" opacity="1.000000" stroke="none" 
	d="
M534.058350,422.230042 
	C536.642456,424.015961 539.204346,426.193085 541.916870,428.668945 
	C537.526184,429.211334 534.483826,427.558075 534.058350,422.230042 
z"/>
</svg>