<svg version="1.1" id="Layer_1" xmlns="http://www.w3.org/2000/svg" xmlns:xlink="http://www.w3.org/1999/xlink" x="0px" y="0px"
	width="100%" viewBox="0 0 512 512" preserveAspectRatio="xMidYMid meet" enable-background="new 0 0 512 512" xml:space="preserve">
<path fill="#000000" opacity="1.000000" stroke="none" 
	d="
M112.997559,241.000214 
	C113.226791,222.356613 113.213104,204.205307 113.781006,186.072220 
	C114.102966,175.791962 118.757805,167.653793 127.972252,162.352539 
	C158.865967,144.578857 189.709106,126.717247 220.572296,108.890495 
	C227.495041,104.891869 234.418686,100.894722 241.345352,96.902878 
	C251.606781,90.989197 261.866486,90.959450 272.153595,96.868790 
	C282.117859,102.592682 292.109558,108.268883 302.080597,113.981018 
	C303.954285,115.054382 305.582062,115.894241 308.095795,115.268555 
	C311.408234,114.444046 313.686829,117.077049 315.132385,119.658585 
	C315.980103,121.172493 316.731171,122.454239 318.235229,123.317505 
	C337.301300,134.260391 356.348114,145.236877 375.430481,156.151184 
	C377.599762,157.391907 379.482544,159.066986 382.493073,156.664383 
	C384.744904,154.867264 389.955719,158.742935 389.545807,161.736984 
	C389.244568,163.937241 390.116821,165.155319 391.472931,166.489716 
	C397.643250,172.561340 400.219910,180.099716 400.239594,188.601669 
	C400.275116,203.928116 400.277252,219.254822 400.221619,234.581161 
	C400.211670,237.319168 400.822083,239.674637 402.217102,242.119186 
	C412.473450,260.091919 412.117249,278.259247 402.507935,296.330505 
	C401.042084,299.087189 400.170410,301.693176 400.205811,304.798981 
	C400.308258,313.793762 400.358307,322.792938 400.191650,331.785980 
	C399.978699,343.276306 395.378784,352.171082 384.983673,357.991150 
	C347.348816,379.062195 309.829895,400.340118 272.234589,421.481934 
	C261.764221,427.369995 251.264236,426.958221 240.877518,421.096130 
	C206.213791,401.532501 171.546402,381.975372 136.881042,362.414642 
	C136.010803,361.923615 135.189438,361.320770 134.275360,360.936340 
	C118.687988,354.381104 113.669991,342.377960 113.392296,325.914673 
	C112.917587,297.770905 113.433502,269.635010 112.997559,241.000214 
M268.433289,414.940521 
	C305.860931,393.812866 343.274628,372.660461 380.734344,351.589813 
	C385.255188,349.046875 389.025024,345.909943 390.779846,340.945831 
	C394.486145,330.461182 391.941589,319.736908 392.161285,308.792236 
	C378.472137,319.616821 362.830261,319.745667 347.019165,319.380005 
	C338.359039,319.179688 329.678558,319.087585 321.029816,319.464111 
	C316.032593,319.681641 314.474579,318.205536 314.520447,313.061127 
	C314.768433,285.235748 314.639343,257.406982 314.640198,229.579391 
	C314.640259,227.218658 314.640198,224.857925 314.640198,222.497208 
	C312.383636,225.318008 311.060547,228.162857 309.844391,231.052704 
	C298.152679,258.834503 286.415833,286.597687 274.877441,314.443085 
	C273.377899,318.061859 271.516571,319.663116 267.503296,319.440308 
	C261.688873,319.117523 255.838867,319.210052 250.013306,319.403839 
	C246.839127,319.509430 245.148911,318.254913 244.043045,315.355774 
	C241.669830,309.134094 239.017715,303.019470 236.551819,296.832306 
	C232.779831,287.368011 232.805511,287.356628 222.788452,288.623779 
	C222.127487,288.707397 221.469833,288.920258 220.812515,288.912628 
	C217.182327,288.870575 216.014252,290.538177 216.158737,294.194641 
	C216.506912,303.005920 217.781860,311.769714 217.348953,320.623413 
	C216.650406,334.909485 213.059509,348.197510 204.386108,359.831879 
	C200.599304,364.911438 197.824631,365.090637 194.918839,359.444855 
	C193.020477,355.756439 190.127853,353.634583 187.142197,351.323975 
	C181.873138,347.246368 176.579636,343.200256 171.285141,339.155670 
	C169.227280,337.583649 167.916824,336.007568 169.997528,333.386597 
	C172.156113,330.667450 173.945221,331.901764 175.865494,333.532806 
	C177.389191,334.827026 178.915039,336.120026 180.473618,337.371613 
	C186.125732,341.910522 191.792068,346.431732 197.419510,350.932800 
	C201.836380,345.767029 201.800858,345.030273 197.191452,341.335236 
	C191.732407,336.959015 186.294189,332.553406 180.734558,328.307678 
	C178.149429,326.333496 177.160431,324.425812 179.733810,321.788879 
	C181.450653,320.029633 181.394272,318.659454 178.852905,317.877014 
	C173.836426,322.499084 173.813202,322.525787 168.417572,317.832489 
	C163.264359,313.350037 158.157425,308.814209 153.047424,304.282318 
	C149.620224,301.242889 147.522736,304.150269 145.522552,306.164948 
	C143.020615,308.685089 145.684921,309.952911 147.286331,311.203308 
	C153.456635,316.021210 159.634399,320.833527 165.927063,325.488831 
	C168.530243,327.414642 168.726212,329.199310 166.791168,331.707886 
	C164.759720,334.341431 163.194733,332.971191 161.405151,331.512665 
	C155.088913,326.364960 148.735855,321.262421 142.019394,315.837952 
	C140.807449,318.601837 138.881348,319.753967 136.111282,319.410370 
	C134.005325,319.149170 132.609802,320.224945 131.917450,322.190613 
	C130.567291,326.023895 128.250015,325.292267 125.752892,323.485840 
	C124.467758,322.556183 123.262802,321.515656 121.241974,319.903137 
	C121.241974,324.357147 121.294731,328.129089 121.231400,331.899078 
	C121.082558,340.758850 125.037163,347.201508 132.663376,351.505890 
	C170.235168,372.712280 207.804703,393.922668 245.388107,415.108459 
	C252.783951,419.277527 260.273224,419.268677 268.433289,414.940521 
M127.551216,219.595581 
	C128.550919,219.585388 129.592209,219.755112 130.543472,219.535263 
	C135.993408,218.275757 139.208130,220.517044 142.457886,225.055634 
	C152.055389,238.459290 162.308502,251.393860 172.326813,264.495361 
	C173.444214,265.956696 174.700821,267.311554 176.675323,269.637512 
	C176.675323,253.530365 176.780838,238.874878 176.606216,224.222733 
	C176.558487,220.217636 177.872925,219.040863 181.858368,219.300842 
	C187.658844,219.679245 193.513489,219.576508 199.326370,219.294266 
	C203.285385,219.102051 204.591614,220.407669 204.477188,224.441895 
	C204.202667,234.119827 204.388397,243.810806 204.388397,253.496506 
	C204.600784,247.579453 206.049728,241.786331 208.345062,236.561874 
	C211.171890,230.127716 206.115417,225.562881 205.659256,220.219635 
	C207.064575,218.902420 208.423294,219.167374 209.710419,219.412292 
	C214.559555,220.335052 218.245407,218.918060 221.587189,215.053314 
	C228.564255,206.984360 237.855301,202.526825 247.969696,199.663681 
	C261.337830,195.879471 275.071106,194.487579 288.869354,193.749146 
	C292.582275,193.550446 293.850830,192.555923 293.267181,188.653107 
	C292.506409,183.566147 292.317108,178.378815 292.117889,173.225540 
	C291.487762,156.926849 292.556915,140.889679 300.680389,126.205750 
	C302.377014,123.138931 300.715210,122.092766 298.504028,120.837288 
	C289.668579,115.820602 280.538177,111.231583 272.136749,105.565300 
	C261.453369,98.359978 251.745285,99.123795 241.066818,105.714752 
	C224.916443,115.683052 208.244690,124.806236 191.800034,134.298157 
	C171.893204,145.788452 151.981567,157.270508 132.094086,168.794220 
	C124.670418,173.095795 121.075775,179.538971 121.230759,188.192902 
	C121.385880,196.854233 121.442680,205.524765 121.210609,214.182358 
	C121.099777,218.317154 122.552376,220.109512 127.551216,219.595581 
M311.165894,203.438812 
	C306.849060,203.354004 305.197021,205.367996 305.847534,209.681519 
	C306.138733,211.612335 305.850433,213.673935 305.564301,215.638214 
	C305.140045,218.550507 306.259308,219.460617 309.139526,219.415710 
	C321.614105,219.221146 334.091888,219.096420 346.567657,219.146393 
	C362.266815,219.209259 377.966095,219.458664 391.311493,229.656418 
	C391.479767,229.784988 391.917694,229.560638 392.590546,229.432098 
	C392.590546,214.545944 392.908691,199.593063 392.407593,184.667679 
	C392.245361,179.835785 389.850769,175.124359 385.184143,171.712387 
	C383.704956,173.724869 382.395569,175.612610 380.978668,177.415833 
	C374.243073,185.987793 365.837646,192.355438 355.586151,196.110123 
	C341.537903,201.255432 326.915680,203.153549 311.165894,203.438812 
M343.524384,295.035400 
	C351.011414,296.383911 358.544159,296.168427 365.688477,293.803741 
	C378.034149,289.717499 382.517334,278.397217 381.394897,266.197998 
	C380.196075,253.168884 371.547729,245.017654 359.046021,244.149689 
	C355.231537,243.884872 351.387726,244.069733 347.565308,243.884537 
	C343.816650,243.702911 342.112000,245.064682 342.273132,249.083359 
	C342.526428,255.401276 342.234436,261.739075 342.376953,268.063873 
	C342.575134,276.858826 341.650299,285.677765 343.524384,295.035400 
M310.447418,182.908234 
	C309.124634,185.108688 307.573914,186.954330 304.645660,186.240402 
	C304.503998,192.384766 305.011261,192.810913 311.335266,192.314987 
	C311.828674,191.767151 311.356476,191.415649 311.138519,190.980621 
	C309.812195,188.333542 311.817474,186.894363 313.395203,185.570694 
	C315.164093,184.086655 316.472931,185.766235 317.652191,186.841629 
	C321.472260,190.325119 325.247375,193.797958 331.568970,190.132278 
	C328.111450,187.059723 325.071350,184.295258 321.958984,181.614746 
	C319.941711,179.877365 319.636230,178.282974 321.551788,176.148819 
	C323.510529,173.966522 325.125519,174.278305 327.019531,176.090286 
	C330.508820,179.428452 334.060974,182.700851 337.587402,186.000198 
	C341.645081,189.796631 343.882599,189.896454 349.164368,186.253967 
	C343.360168,180.927216 337.663879,175.615051 331.864807,170.417618 
	C329.430054,168.235458 329.665131,166.376251 331.746704,164.090958 
	C334.041809,161.571259 335.701294,162.714142 337.575684,164.539154 
	C342.825714,169.650925 348.158783,174.677353 353.414337,179.783524 
	C358.245880,184.477737 359.760223,184.358047 364.608032,178.302536 
	C357.504303,172.117203 350.383301,165.901962 343.243134,159.708786 
	C341.123901,157.870636 339.141876,156.175949 341.732941,153.137833 
	C344.528290,149.860199 346.441345,152.265823 348.338623,154.011322 
	C354.588562,159.761215 360.839203,165.516571 366.898376,171.464584 
	C369.464111,173.983246 371.413422,173.837555 373.355377,171.048325 
	C374.459045,169.463150 376.152405,168.131866 375.899628,165.370926 
	C364.311340,158.735687 352.524170,151.986572 340.211182,144.936386 
	C340.556793,148.606155 339.607544,151.162415 336.937714,152.173859 
	C334.465424,153.110443 333.210846,150.480042 331.656769,149.142044 
	C328.123840,146.100357 324.854431,142.745224 321.249878,139.796204 
	C317.572662,136.787750 314.716644,132.745667 310.156525,130.547974 
	C306.950012,134.245575 306.991669,137.231140 310.769775,140.381607 
	C316.779297,145.392807 322.485443,150.766083 328.428345,155.859711 
	C330.974579,158.042068 330.643463,159.909851 328.605133,162.161896 
	C326.455444,164.537018 324.848724,163.305649 323.166382,161.661896 
	C318.400787,157.005615 313.664185,152.318542 308.828278,147.736343 
	C307.742279,146.707306 306.971954,144.814774 305.052826,145.397766 
	C302.299835,151.604263 303.691620,156.236420 309.327698,159.984573 
	C312.760223,162.267288 315.563019,165.483932 318.721100,168.196808 
	C320.896423,170.065491 320.490173,171.803146 318.884003,173.779709 
	C317.120239,175.950226 315.445099,175.977966 313.424622,174.116806 
	C310.417236,171.346542 307.301331,168.694016 303.717102,165.538376 
	C302.782074,170.823441 302.900696,174.781799 307.242493,177.671921 
	C308.820648,178.722427 310.638580,179.923996 310.447418,182.908234 
M279.927155,223.330276 
	C278.264923,221.754639 277.593018,220.163620 279.487061,218.208282 
	C281.179779,216.460815 282.731842,216.316620 284.714661,217.815292 
	C287.656219,220.038544 290.670258,220.169052 293.723053,217.596069 
	C292.696381,214.688477 289.351624,213.924866 288.483612,211.490784 
	C287.208679,207.915680 290.476410,206.964432 292.841309,205.531158 
	C290.883209,204.541901 288.880035,204.194763 287.272705,205.766525 
	C285.295837,207.699677 283.781006,207.092834 281.578156,206.000046 
	C278.900360,204.671692 275.867920,204.905533 273.227448,206.603256 
	C273.464844,208.661499 275.036926,209.262344 276.128937,210.167694 
	C278.387787,212.040375 278.629303,213.844528 276.626526,216.065247 
	C274.678711,218.224976 273.153198,217.122803 271.545990,215.677216 
	C269.688599,214.006622 267.798706,212.372131 265.920746,210.724411 
	C261.083038,206.479782 258.511505,206.421173 252.628143,210.594406 
	C255.690704,214.400024 259.916626,216.885071 263.304321,220.257797 
	C265.223114,222.168060 269.113434,223.423767 265.591034,227.240707 
	C262.045746,231.082474 260.391327,227.130554 258.384644,225.483490 
	C255.300171,222.951767 252.471375,220.108124 249.539505,217.390991 
	C244.001663,212.258789 241.875656,212.383713 236.640366,218.246628 
	C237.282425,220.033966 238.881851,221.050125 240.236252,222.215866 
	C244.779404,226.126282 249.343811,230.015610 254.000900,233.788544 
	C256.331635,235.676773 255.742233,237.248001 254.132187,239.221024 
	C252.379761,241.368561 250.899216,240.948563 249.137680,239.333939 
	C246.000244,236.458176 242.788345,233.663651 239.607605,230.835144 
	C242.978439,239.870941 243.637222,250.178940 253.523788,255.502686 
	C258.116241,257.975616 261.160583,262.790314 265.829773,265.392700 
	C270.609436,258.722992 270.514496,257.981201 264.632751,253.136169 
	C262.447906,251.336411 260.300507,249.489731 258.172363,247.623001 
	C256.392273,246.061584 254.429214,244.595062 256.718597,241.873550 
	C258.908691,239.270035 260.648499,239.884354 262.956390,241.875534 
	C266.007812,244.508240 268.692749,247.726593 272.515869,249.409348 
	C276.737885,242.240631 276.728241,242.159698 271.056641,237.124496 
	C270.309418,236.461105 269.557831,235.800476 268.777893,235.176529 
	C266.907623,233.680313 266.424622,232.124130 268.183289,230.124130 
	C269.906860,228.164017 271.536835,227.564941 273.635376,229.596436 
	C275.253540,231.162903 277.028748,232.567108 278.823822,234.121109 
	C282.423645,227.037033 282.423645,227.037033 279.927155,223.330276 
M302.347168,144.082504 
	C303.498230,137.264618 306.177673,131.039276 309.531281,125.038651 
	C310.553894,123.208862 313.392792,120.802116 310.426880,119.101067 
	C307.526703,117.437714 306.827850,121.213844 305.746307,122.873924 
	C296.067261,137.730377 293.611633,154.279526 294.691620,171.615204 
	C295.600861,186.210098 297.240753,200.775024 296.648865,215.433319 
	C296.571594,217.347214 296.762695,218.766602 299.030823,218.954849 
	C301.493835,219.159256 302.881470,218.106339 302.853943,215.565735 
	C302.769287,207.749100 302.958496,199.930298 302.188812,192.125366 
	C300.636902,176.389130 299.258301,160.641251 302.347168,144.082504 
M386.486084,162.408188 
	C386.703339,161.050354 386.201233,160.004639 384.836151,159.796829 
	C382.833557,159.491974 382.403595,161.335693 381.805115,162.571640 
	C373.402802,179.923080 358.816132,188.653610 340.569458,192.366425 
	C330.591187,194.396820 320.473572,194.934860 310.338043,195.334381 
	C308.028198,195.425415 305.266144,195.105484 305.453918,198.671585 
	C305.640594,202.216599 308.354645,201.022964 310.352905,200.992706 
	C318.848846,200.864029 327.290314,200.012039 335.658386,198.623520 
	C358.195374,194.883987 376.769012,185.411606 386.486084,162.408188 
M293.520447,200.269745 
	C294.056824,197.024292 292.306030,196.076279 289.468018,196.273590 
	C284.492126,196.619522 279.499664,196.827454 274.546600,197.382538 
	C261.291534,198.867981 248.146622,200.852798 236.103546,207.161026 
	C230.900101,209.886612 226.476425,213.471344 222.650879,218.412338 
	C226.257446,220.250153 229.130112,220.039139 231.743774,217.618240 
	C235.848129,213.816574 240.720657,211.272980 245.833481,209.228531 
	C256.778992,204.851807 268.293701,203.312912 279.980530,202.666138 
	C284.409424,202.421036 288.942596,202.810089 293.520447,200.269745 
M210.795044,342.283356 
	C216.651978,325.758728 214.451035,308.794647 213.513458,291.904602 
	C213.392700,289.728912 211.814575,289.320221 209.952682,289.372314 
	C207.755524,289.433838 207.092163,290.673676 207.227982,292.649811 
	C207.638062,298.616394 207.820618,304.607544 208.476013,310.546692 
	C210.248611,326.609741 207.518463,341.649567 198.899826,355.471832 
	C198.140381,356.689789 196.780426,358.048126 198.463272,359.403564 
	C200.440170,360.995789 201.537323,359.110046 202.461151,357.879547 
	C205.877350,353.329285 208.261658,348.191376 210.795044,342.283356 
M212.596725,265.500214 
	C212.460342,260.317902 213.006775,255.191910 214.250336,250.175995 
	C215.488205,245.183075 214.440552,240.816925 211.038452,236.100967 
	C206.962677,249.247650 206.000076,262.062775 206.315918,275.042908 
	C206.360977,276.894012 207.376953,277.718903 209.181946,277.714783 
	C211.071365,277.710510 212.517792,277.101562 212.575806,274.956970 
	C212.652267,272.131409 212.599457,269.302399 212.596725,265.500214 
M156.102783,286.755249 
	C152.029587,280.043671 147.029953,274.075775 141.626984,268.271271 
	C141.096420,277.334473 140.357452,286.133331 141.653198,295.658203 
	C146.989731,292.605164 151.547821,289.997437 156.102783,286.755249 
M204.684174,334.905212 
	C205.602859,331.464294 206.180847,328.471680 202.889236,325.414764 
	C197.377045,320.295624 191.580704,317.737457 183.279770,320.327057 
	C189.713638,326.023193 195.645081,331.307007 201.620773,336.540283 
	C202.983154,337.733398 204.043564,337.341705 204.684174,334.905212 
M212.293274,286.635468 
	C218.617142,286.156525 224.941025,285.677551 231.294357,285.196381 
	C230.939835,280.423492 229.152679,279.051239 225.003723,279.700317 
	C220.624435,280.385376 216.080978,279.951874 211.652832,280.419556 
	C208.976212,280.702301 204.387833,278.469757 204.463547,283.730652 
	C204.535461,288.726959 208.958801,285.881042 212.293274,286.635468 
M221.752365,266.786224 
	C219.876129,265.560913 218.618958,263.394196 215.902481,262.943817 
	C214.118607,267.774445 216.387634,271.126678 218.807465,275.094452 
	C221.264038,279.122498 224.050644,277.741577 226.271301,276.565979 
	C229.235657,274.996643 226.792969,272.482758 225.805466,270.684509 
	C225.050583,269.309875 223.495621,268.374573 221.752365,266.786224 
M155.454330,296.867584 
	C157.432434,295.813843 159.991760,295.752838 161.315399,293.594238 
	C159.937317,289.171936 157.071609,290.323425 154.620987,291.921204 
	C149.537323,295.235718 141.373184,295.574402 140.969971,305.497101 
	C146.198090,302.123962 150.108078,298.990845 155.454330,296.867584 
M172.486298,310.862000 
	C173.814667,311.935577 175.143051,313.009155 176.471420,314.082733 
	C173.447784,308.967621 169.868973,304.412170 166.624710,299.629761 
	C164.173904,296.017029 161.790833,296.485962 158.460098,299.223816 
	C163.114197,303.105103 167.524017,306.782684 172.486298,310.862000 
M343.525696,173.978394 
	C340.453613,171.247116 337.988495,167.735397 333.681946,166.496872 
	C339.036774,173.792191 345.751343,179.579132 352.956268,184.864136 
	C351.167755,180.302658 346.978760,177.947037 343.525696,173.978394 
M161.383774,308.105804 
	C165.508209,311.451965 168.896561,315.788025 174.227020,317.557770 
	C168.883301,310.813965 162.260071,305.616150 155.318451,300.794495 
	C155.037323,301.099060 154.756180,301.403595 154.475052,301.708160 
	C156.600754,303.684875 158.726456,305.661591 161.383774,308.105804 
M363.489777,173.111603 
	C358.113556,165.959106 350.846954,160.923172 344.111786,155.288757 
	C349.423492,162.297714 356.492310,167.359879 363.489777,173.111603 
M305.913055,163.703430 
	C309.510590,166.150116 311.796936,170.463852 316.153137,171.830200 
	C316.516418,171.377716 316.879669,170.925232 317.242950,170.472748 
	C313.010040,166.779434 308.777161,163.086136 304.304993,159.184052 
	C303.305511,161.573425 304.656525,162.298721 305.913055,163.703430 
M158.166733,325.299988 
	C160.176529,326.479218 161.257431,329.149780 164.668304,328.268005 
	C158.322556,323.403809 151.976822,318.539581 145.631088,313.675385 
	C145.424561,313.930298 145.218018,314.185181 145.011475,314.440094 
	C149.202209,317.924347 153.392929,321.408630 158.166733,325.299988 
M260.288666,273.307404 
	C259.365448,273.668304 258.388367,273.932587 257.530518,274.410767 
	C255.883255,275.329041 256.650055,276.631744 257.117157,277.866486 
	C257.584412,279.101501 258.402374,279.901642 259.757904,279.469635 
	C262.468658,278.605652 262.749817,276.018433 263.068726,273.838745 
	C263.304565,272.226868 261.773407,273.035431 260.288666,273.307404 
M187.459137,330.004333 
	C189.752945,331.774689 192.046768,333.545044 194.340576,335.315399 
	C190.766251,330.934692 187.203079,326.588440 181.092728,323.673737 
	C182.473511,327.316772 185.213074,327.901184 187.459137,330.004333 
M318.018066,150.565216 
	C316.539886,149.273880 315.061737,147.982544 313.583557,146.691208 
	C314.071655,146.272705 314.559753,145.854202 315.047821,145.435684 
	C318.929810,149.823105 322.811798,154.210526 326.332367,158.189484 
	C324.696808,155.289352 321.064056,153.710037 318.018066,150.565216 
M245.891617,230.611938 
	C242.988373,228.193085 240.085129,225.774231 237.181885,223.355377 
	C237.007507,223.563934 236.833145,223.772476 236.658783,223.981033 
	C241.544907,228.410553 246.431030,232.840088 251.317154,237.269608 
	C251.608200,236.939468 251.899246,236.609344 252.190292,236.279205 
	C250.837875,233.959335 248.258987,232.898422 245.891617,230.611938 
M262.748718,267.383423 
	C258.539825,263.564606 254.330933,259.745789 250.122040,255.926987 
	C249.812988,256.289398 249.503922,256.651794 249.194855,257.014191 
	C252.939407,261.536896 257.653839,264.940002 262.748718,267.383423 
M331.378387,184.104370 
	C328.860565,182.496780 327.311096,179.495728 323.644531,179.441711 
	C327.891022,183.021149 332.137512,186.600586 336.384003,190.180008 
	C335.853363,187.354782 333.512146,186.297546 331.378387,184.104370 
M255.457016,266.338348 
	C254.651505,265.853119 254.046783,264.876587 252.876572,265.283691 
	C253.748917,271.789764 254.747177,272.546387 258.977997,269.871765 
	C258.460388,268.348175 256.944733,267.786377 255.457016,266.338348 
M267.831787,252.307587 
	C268.828613,252.861115 269.344818,254.617859 271.567505,253.328003 
	C267.875183,249.739853 264.338501,246.436890 260.287292,243.761581 
	C260.012787,244.077469 259.738281,244.393356 259.463806,244.709259 
	C262.096252,247.094894 264.728699,249.480545 267.831787,252.307587 
M257.971405,221.487366 
	C259.585571,222.708954 260.578369,224.870544 263.553986,224.222778 
	C259.860535,221.065933 256.167053,217.909088 252.473587,214.752258 
	C252.202148,215.044144 251.930710,215.336014 251.659271,215.627899 
	C253.597565,217.419998 255.535873,219.212112 257.971405,221.487366 
M206.016144,311.786194 
	C205.734177,310.649261 206.495773,309.112793 204.380417,308.281677 
	C204.374298,311.474365 203.842041,314.429352 206.028625,317.270416 
	C206.028625,315.697144 206.028625,314.123871 206.016144,311.786194 
M275.062866,234.485992 
	C273.772980,233.661041 272.974487,231.903534 270.500732,232.184967 
	C272.337555,234.972137 274.237854,236.936737 277.100494,238.207428 
	C277.396179,236.350601 276.296539,235.719345 275.062866,234.485992 
M220.975388,262.513062 
	C221.280472,262.612427 221.580536,262.745850 221.893463,262.792084 
	C221.998383,262.807556 222.259460,262.566620 222.241150,262.500610 
	C221.375412,259.381256 218.707245,258.346222 215.778351,256.396332 
	C216.700485,259.670197 218.835312,260.736664 220.975388,262.513062 
M172.922287,336.135162 
	C174.659531,339.290588 178.013779,340.217896 180.793106,341.949615 
	C178.747650,339.326538 176.259445,337.272888 172.922287,336.135162 
z"/>
</svg>